<svg width="130" height="124" viewBox="0 0 130 124" fill="none" xmlns="http://www.w3.org/2000/svg">
<g clip-path="url(#clip0)">
<ellipse cx="65.5" cy="62.5" rx="65.5" ry="61.5" fill="white"/>
<path d="M68 65C68 61.287 69.633 57.726 72.5398 55.1005C75.4467 52.475 79.3891 51 83.5 51C87.6109 51 91.5533 52.475 94.4602 55.1005C97.367 57.726 99 61.287 99 65C99 68.713 97.367 72.274 94.4602 74.8995C91.5533 77.525 87.6109 79 83.5 79C79.3891 79 75.4467 77.525 72.5398 74.8995C69.633 72.274 68 68.713 68 65ZM37 93C37 89.287 38.633 85.726 41.5398 83.1005C44.4467 80.475 48.3891 79 52.5 79H68V93C68 96.713 66.367 100.274 63.4602 102.899C60.5533 105.525 56.6109 107 52.5 107C48.3891 107 44.4467 105.525 41.5398 102.899C38.633 100.274 37 96.713 37 93ZM68 23V51H83.5C87.6109 51 91.5533 49.525 94.4602 46.8995C97.367 44.274 99 40.713 99 37C99 33.287 97.367 29.726 94.4602 27.1005C91.5533 24.475 87.6109 23 83.5 23H68ZM37 37C37 40.713 38.633 44.274 41.5398 46.8995C44.4467 49.525 48.3891 51 52.5 51H68V23H52.5C48.3891 23 44.4467 24.475 41.5398 27.1005C38.633 29.726 37 33.287 37 37ZM37 65C37 68.713 38.633 72.274 41.5398 74.8995C44.4467 77.525 48.3891 79 52.5 79H68V51H52.5C48.3891 51 44.4467 52.475 41.5398 55.1005C38.633 57.726 37 61.287 37 65Z" fill="#5C69E5"/>
</g>
<defs>
<clipPath id="clip0">
<rect width="130" height="124" fill="white"/>
</clipPath>
</defs>
</svg>
