<svg width="131" height="128" viewBox="0 0 131 128" fill="none" xmlns="http://www.w3.org/2000/svg">
<path d="M65.5 1.58447C29.3113 1.58447 0 30.2405 0 65.5845C0 93.8671 18.7657 117.851 44.7856 126.304C48.0606 126.907 49.2615 124.928 49.2615 123.227C49.2615 121.707 49.2069 117.68 49.1796 112.347C30.9597 116.208 27.117 103.76 27.117 103.76C24.1368 96.3738 19.8301 94.4005 19.8301 94.4005C13.8969 90.4325 20.2886 90.5125 20.2886 90.5125C26.8659 90.9605 30.321 97.1045 30.321 97.1045C36.1615 106.891 45.6535 104.064 49.3979 102.427C49.9874 98.2885 51.674 95.4671 53.5463 93.8671C38.9998 92.2671 23.711 86.7631 23.711 62.2405C23.711 55.2538 26.2491 49.5471 30.452 45.0671C29.7152 43.4511 27.5045 36.9445 31.0252 28.1285C31.0252 28.1285 36.5108 26.4111 49.0377 34.6885C54.2777 33.2645 59.8452 32.5605 65.4127 32.5285C70.9802 32.5605 76.5477 33.2645 81.7877 34.6885C94.2327 26.4111 99.7183 28.1285 99.7183 28.1285C103.239 36.9445 101.028 43.4511 100.373 45.0671C104.549 49.5471 107.087 55.2538 107.087 62.2405C107.087 86.8271 91.7764 92.2405 77.2027 93.8138C79.4952 95.7338 81.6239 99.6591 81.6239 105.654C81.6239 114.219 81.542 121.099 81.542 123.179C81.542 124.859 82.6883 126.859 86.0452 126.219C112.251 117.824 131 93.8245 131 65.5845C131 30.2405 101.672 1.58447 65.5 1.58447Z" fill="white"/>
</svg>
