<svg width="131" height="123" viewBox="0 0 131 123" fill="none" xmlns="http://www.w3.org/2000/svg">
<ellipse cx="65.5" cy="61.5" rx="65.5" ry="61.5" fill="white"/>
<path d="M32.0069 29.4739C31.24 29.4739 30.6684 30.006 30.7365 30.6564L37.2026 92.407C37.2707 93.0574 37.9309 93.7325 38.6703 93.9073L66.1089 100.394C66.848 100.569 68.0573 100.569 68.7966 100.394L96.3185 93.8971C97.0576 93.7225 97.7186 93.0474 97.7867 92.3973L104.263 30.6566C104.332 30.0062 103.76 29.474 102.993 29.474L32.0069 29.4739ZM55.1218 70.2896C55.8887 70.2896 56.5718 70.8218 56.6404 71.4722L57.05 75.3806C57.1181 76.031 57.7793 76.7022 58.5201 76.8725L66.1121 78.6181C66.8522 78.7884 67.4608 78.9278 67.4642 78.9278C67.4674 78.9278 68.0758 78.7882 68.8163 78.618L76.4218 76.8681C77.162 76.6979 77.8238 76.0262 77.8924 75.3763L78.7171 67.5459C78.7857 66.8955 78.2143 66.3633 77.4473 66.3633H48.2289C47.4619 66.3633 46.7788 65.8309 46.7108 65.1808L44.4522 43.6363C44.3916 43.0563 44.9692 42.5816 45.7364 42.5816H89.2091C89.9758 42.5816 90.5538 43.0562 90.493 43.6365L89.7608 50.4443H55.8285C55.0615 50.4443 54.49 50.9765 54.558 51.6269L55.1557 57.3152C55.2238 57.9655 55.9072 58.4978 56.6744 58.4978H87.6914C88.3745 58.4978 88.883 58.9724 88.8213 59.5526L86.4701 81.9751C86.432 82.3401 85.7964 82.7816 85.0573 82.9561L68.844 86.7837C68.1048 86.958 67.4907 87.1024 67.4793 87.1044C67.4679 87.1066 66.8539 86.9652 66.1146 86.7908L49.884 82.9562C49.1449 82.7816 48.4845 82.1065 48.4163 81.4561L47.3716 71.4722C47.3035 70.8218 47.8756 70.2896 48.6426 70.2896H55.1218Z" fill="#5C69E5"/>
<path d="M67.4536 102C66.8113 102 66.1691 101.938 65.6457 101.814L38.2074 95.3277C36.7826 94.9908 35.6094 93.7915 35.4784 92.5375L29.0121 30.7874C28.9367 30.0661 29.2173 29.3514 29.7816 28.8261C30.3458 28.3012 31.1569 28 32.007 28H102.993C103.844 28 104.655 28.3015 105.22 28.8272C105.784 29.3527 106.064 30.0677 105.988 30.7887L99.5111 92.5286C99.3797 93.7821 98.2061 94.9813 96.7811 95.3177L69.2592 101.815C68.7358 101.938 68.0945 102 67.4536 102ZM32.5053 30.9481L38.9273 92.2762C38.9449 92.3333 39.0709 92.4621 39.1497 92.4916L66.5721 98.9735C67.0082 99.0769 67.8974 99.0767 68.3347 98.9737L95.8561 92.4767C95.9172 92.4523 96.0396 92.3281 96.0633 92.256L102.494 30.9481H32.5053ZM67.5052 88.5872C67.2436 88.5872 66.8683 88.4985 65.6519 88.2111L49.421 84.3766C47.9966 84.0404 46.8231 82.8412 46.6919 81.5871L45.647 71.6032C45.5715 70.8823 45.8521 70.1676 46.4162 69.6422C46.9806 69.117 47.7919 68.8156 48.6424 68.8156H55.1216C56.7911 68.8156 58.2156 69.9248 58.3644 71.3407L58.7732 75.239C58.7961 75.3065 58.9093 75.4213 58.9834 75.4522L66.5631 77.1948C66.9087 77.2743 67.2253 77.347 67.4633 77.4015C67.7015 77.347 68.0184 77.2742 68.3644 77.1945L75.9575 75.4474C76.032 75.4164 76.1458 75.301 76.1687 75.2332L76.9477 67.8369H48.2292C46.5591 67.8369 45.1349 66.7274 44.9865 65.3112L42.7279 43.7669C42.6575 43.0912 42.9162 42.4427 43.4562 41.9399C44.025 41.4106 44.8563 41.1071 45.7365 41.1071H89.2093C89.2095 41.1071 89.2098 41.1071 89.21 41.1071C90.0895 41.1071 90.9203 41.4108 91.4891 41.9399C92.0294 42.4426 92.2881 43.0915 92.2177 43.7668L91.485 50.5785C91.4035 51.3372 90.6561 51.9182 89.761 51.9182H56.327L56.8636 57.0235H87.6917C88.5023 57.0235 89.2757 57.3112 89.814 57.8127C90.3524 58.3149 90.6191 58.9975 90.5458 59.6856L88.1945 82.1061C88.0731 83.2666 86.764 84.0826 85.5202 84.3764L69.3065 88.2042C67.9215 88.5308 67.9067 88.5334 67.8524 88.544C67.7162 88.5694 67.622 88.5872 67.5052 88.5872ZM50.3584 81.5386L66.5777 85.3702C66.9488 85.4578 67.2498 85.5279 67.4677 85.5782C67.7095 85.5214 68.0315 85.4457 68.3817 85.363L84.5948 81.5354C84.6658 81.5188 84.7305 81.4959 84.7848 81.4729L87.0391 59.9718H56.6745C55.0041 59.9718 53.5794 58.8622 53.4313 57.4458L52.8338 51.758C52.7581 51.0365 53.0387 50.3218 53.6028 49.7965C54.1671 49.2712 54.9782 48.97 55.8285 48.97H88.1807L88.7095 44.0553H46.2347L48.4186 64.8887H77.4476C78.2981 64.8887 79.1095 65.1902 79.6736 65.7156C80.2377 66.2409 80.5178 66.9561 80.4418 67.6773L79.6169 75.5074C79.4845 76.765 78.3049 77.9616 76.8732 78.2908L69.268 80.0405C67.6984 80.4015 67.6984 80.4015 67.4643 80.4015C67.2297 80.4015 67.2297 80.4015 65.661 80.0409L58.0691 78.2954C56.6368 77.966 55.4575 76.7692 55.326 75.511L54.933 71.7635H49.1408L50.1401 81.3147C50.163 81.3857 50.2812 81.5065 50.3584 81.5386Z" fill="#4920BF"/>
<path d="M56.4198 35.9604H37.2018C36.2457 35.9604 35.4705 35.3003 35.4705 34.4863C35.4705 33.6723 36.2457 33.0122 37.2018 33.0122H56.4198C57.3758 33.0122 58.1511 33.6723 58.1511 34.4863C58.1511 35.3003 57.376 35.9604 56.4198 35.9604Z" fill="#4920BF"/>
<path d="M63.5182 35.9604H62.8256C61.8695 35.9604 61.0942 35.3003 61.0942 34.4863C61.0942 33.6723 61.8695 33.0122 62.8256 33.0122H63.5182C64.4742 33.0122 65.2495 33.6723 65.2495 34.4863C65.2495 35.3003 64.4744 35.9604 63.5182 35.9604Z" fill="#4920BF"/>
</svg>
