<svg width="131" height="118" viewBox="0 0 131 118" fill="none" xmlns="http://www.w3.org/2000/svg">
<path d="M0 0H131V118H0V0ZM120.269 89.857C119.314 84.4732 115.422 79.9499 103.878 75.7314C99.8602 74.0352 95.3953 72.8552 94.0689 70.1264C93.5722 68.5039 93.4958 67.6189 93.8178 66.6602C94.6366 63.484 98.8122 62.5302 102.087 63.4152C104.216 64.0052 106.181 65.4802 107.415 67.8402C113.058 64.5165 113.058 64.5165 116.994 62.3089C115.52 60.2439 114.789 59.354 113.795 58.4739C110.357 55.0077 105.777 53.2377 98.3264 53.3901L94.4783 53.8277C90.7885 54.6389 87.2733 56.4089 85.1445 58.7689C78.922 65.1163 80.7178 76.1788 88.2503 80.7513C95.701 85.7663 106.596 86.8677 107.988 91.5926C109.298 97.3451 103.239 99.1888 97.2566 98.5251C92.8299 97.6401 90.3791 95.6439 87.6772 91.9564L77.6885 97.1238C78.8347 99.4838 80.1447 100.511 82.1097 102.576C91.6072 111.21 115.351 110.768 119.614 97.6401C119.772 97.1976 120.924 94.1738 120.018 89.5276L120.269 89.857ZM71.2367 54.2357H58.9664C58.9664 63.7642 58.9173 73.2337 58.9173 82.777C58.9173 88.8343 59.2611 94.3951 58.164 96.1061C56.3628 99.4937 51.7232 99.061 49.6163 98.4661C47.4548 97.5024 46.3576 96.1749 45.0858 94.2623C44.742 93.7461 44.4854 93.2987 44.3926 93.2987L34.4312 98.8299C36.096 101.927 38.5249 104.592 41.658 106.288C46.3249 108.796 52.5965 109.607 59.1629 108.28C63.4368 107.169 67.1211 104.882 69.0479 101.342C71.8317 96.7698 71.2422 91.1648 71.2149 84.8912C71.2804 74.7923 71.2149 64.6886 71.2149 54.5111L71.2367 54.2357Z" fill="white"/>
</svg>
