<svg width="162" height="152" viewBox="0 0 162 152" fill="none" xmlns="http://www.w3.org/2000/svg">
<ellipse cx="76.5" cy="71.5" rx="65.5" ry="61.5" fill="white"/>
<path d="M83.6052 27.1039L86.9498 27.8474L89.6626 28.8139L91.8551 29.9292L93.5274 31.1187L94.7909 32.3826L95.72 33.6466L96.3146 34.8733L96.6862 35.9885L96.8348 36.955L96.9092 37.6985L96.872 38.1818V58.0326L96.6862 60.3746L96.2031 62.4192L95.4227 64.1292L94.4565 65.5418L93.3416 66.6942L92.1153 67.6235L90.8146 68.3298L89.5139 68.8502L88.2876 69.222L87.1727 69.4822L86.2065 69.6309L85.4261 69.7052H63.2405L60.6763 69.8911L58.4838 70.4116L56.6257 71.2294L55.102 72.2331L53.8757 73.4226L52.8723 74.7237L52.1291 76.062L51.5716 77.4374L51.2 78.7385L50.9399 79.9281L50.7912 80.9318L50.7169 81.7124V93.0876H42.4298L41.6494 92.9761L40.6089 92.7159L39.4197 92.2698L38.119 91.6007L36.7812 90.6342L35.4434 89.2959L34.1427 87.5859L32.9535 85.3926L31.913 82.6789L31.1326 79.4076L30.6123 75.5044L30.4265 70.932L30.6495 66.3968L31.2441 62.5307L32.136 59.2966L33.3251 56.6572L34.663 54.5383L36.1494 52.9026L37.7102 51.6759L39.271 50.7837L40.7575 50.1889L42.0954 49.8172L43.2845 49.6313L44.1764 49.5942H44.771L44.994 49.6313H75.3181V46.5459H53.6155L53.5784 36.3231L53.5041 34.9476L53.6899 33.6837L54.0986 32.5313L54.7304 31.4905L55.6594 30.5239L56.8115 29.6689L58.2236 28.9255L59.8587 28.2563L61.754 27.6987L63.9094 27.2526L66.2878 26.8809L68.9262 26.6579L71.7877 26.5092L74.9093 26.4348L79.6289 26.6207L83.6052 27.1039ZM60.1932 34.4644L59.3385 35.6911L59.0412 37.2152L59.3385 38.7394L60.1932 40.0033L61.4195 40.8211L62.9432 41.1557L64.4668 40.8211L65.6932 40.0033L66.5479 38.7394L66.8452 37.2152L66.5479 35.6911L65.6932 34.4644L64.4668 33.6466L62.9432 33.312L61.4195 33.6466L60.1932 34.4644ZM108.838 49.1481L109.879 49.3711L111.068 49.8172L112.369 50.4863L113.706 51.49L115.044 52.7911L116.345 54.5383L117.534 56.7316L118.575 59.4452L119.355 62.7166L119.875 66.5826L120.061 71.155L119.838 75.7274L119.243 79.5935L118.352 82.7905L117.162 85.4298L115.825 87.5487L114.338 89.2215L112.777 90.4483L111.216 91.3405L109.73 91.9352L108.392 92.2698L107.203 92.4557L106.311 92.53L105.717 92.4929H75.1694V95.5411H96.872L96.9092 105.801L96.9835 107.139L96.7977 108.403L96.3889 109.556L95.7571 110.634L94.8281 111.563L93.6761 112.455L92.2639 113.199L90.6288 113.831L88.7335 114.388L86.5782 114.872L84.1998 115.206L81.5613 115.466L78.6998 115.615L75.5782 115.652L70.8587 115.504L66.8823 114.983L63.5378 114.24L60.825 113.31L58.6324 112.195L56.9601 110.968L55.6966 109.704L54.7676 108.44L54.173 107.214L53.8014 106.099L53.6527 105.169L53.5784 104.426L53.6155 103.942V84.0916L53.8014 81.7124L54.2845 79.705L55.0649 77.995L56.0311 76.5824L57.1459 75.3929L58.3723 74.5007L59.6729 73.7572L60.9736 73.2368L62.1999 72.865L63.3148 72.642L64.281 72.4933L65.0614 72.4189L65.5445 72.3818H87.2471L89.8112 72.1959L92.0038 71.6755L93.8619 70.8948L95.3855 69.8539L96.6119 68.6644L97.6152 67.3633L98.3585 66.025L98.9159 64.6868L99.2875 63.3857L99.5477 62.1961L99.6963 61.1553L99.7706 60.3746V48.9994H107.537L108.058 49.0366L108.838 49.1481ZM84.7944 102.121L83.9397 103.348L83.6424 104.872L83.9397 106.396L84.7944 107.623L86.0207 108.478L87.5444 108.775L89.068 108.478L90.2943 107.623L91.1491 106.396L91.4464 104.872L91.1491 103.348L90.2943 102.121L89.068 101.266L87.5444 100.969L86.0207 101.266L84.7944 102.121Z" fill="#5C69E5"/>
</svg>
