<svg width="47" height="41" viewBox="0 0 47 41" fill="none" xmlns="http://www.w3.org/2000/svg">
<path d="M35.1848 0.0168839H11.778C5.29262 0.0168839 0 4.63385 0 10.2913V30.7425C0 36.3674 5.29262 40.9844 11.778 40.9844H35.222C41.7074 40.9844 47 36.3674 47 30.71V10.2913C46.9627 4.63385 41.6701 0.0168839 35.1848 0.0168839ZM15.6542 33.181H8.94528V16.2738H15.6542V33.181ZM12.2625 13.6727C10.3616 13.6727 8.83347 12.3396 8.83347 10.6814C8.83347 9.02323 10.3616 7.69016 12.2625 7.69016C14.1634 7.69016 15.6915 9.02323 15.6915 10.6814C15.6542 12.3396 14.1261 13.6727 12.2625 13.6727ZM38.0547 33.181H38.0174H32.4266V24.9875C32.4266 23.0042 32.1285 20.4681 29.0349 20.4681C25.8668 20.4681 25.345 22.614 25.345 24.8575V33.181H19.7542V16.2738H24.9722V18.5498H25.1213C25.9413 17.2492 27.8422 16.2413 30.8239 16.2413C36.9738 16.2413 38.0547 19.3301 38.0547 23.9146V33.181Z" fill="black"/>
</svg>
