<svg width="106" height="110" viewBox="0 0 106 110" fill="none" xmlns="http://www.w3.org/2000/svg">
<path d="M71.7267 100.833C70.5553 100.833 69.4319 100.35 68.6036 99.4906C67.7753 98.631 67.31 97.4652 67.31 96.2497V84.333C67.4472 82.9623 67.3059 81.5769 66.8951 80.2663C66.4842 78.9558 65.8131 77.7493 64.925 76.7247C64.3751 76.1058 64.0001 75.3418 63.8411 74.5163C63.6821 73.6909 63.7452 72.8359 64.0235 72.0453C64.3018 71.2546 64.7846 70.5587 65.4188 70.034C66.0531 69.5092 66.8144 69.1759 67.6192 69.0705C78.3958 67.7413 88.3333 64.1663 88.3333 44.7788C88.3367 41.1584 87.3071 37.6179 85.3742 34.6038C83.5905 31.8292 82.9394 28.4341 83.5633 25.1622C83.9614 23.0278 83.9614 20.834 83.5633 18.6997C80.2562 19.8601 77.1423 21.5453 74.3325 23.6955C73.8012 24.087 73.1931 24.3517 72.5517 24.4705C71.9103 24.5894 71.2515 24.5595 70.6225 24.383C62.6519 22.0458 54.2131 22.0458 46.2425 24.383C45.6135 24.5595 44.9547 24.5894 44.3133 24.4705C43.6719 24.3517 43.0637 24.087 42.5325 23.6955C39.7055 21.5204 36.5586 19.8334 33.2133 18.6997C32.7933 20.8318 32.7933 23.0301 33.2133 25.1622C33.7923 28.4752 33.1116 31.8922 31.3141 34.6955C29.3896 37.7307 28.3612 41.283 28.355 44.9163C28.355 62.7455 36.6583 67.5122 49.1133 69.1622C49.9283 69.2671 50.699 69.6058 51.3387 70.1402C51.9785 70.6745 52.462 71.3834 52.735 72.1872C52.9918 72.9671 53.0412 73.8045 52.8779 74.6111C52.7147 75.4177 52.3449 76.1637 51.8075 76.7705C50.9484 77.7234 50.2891 78.8507 49.871 80.0814C49.4529 81.312 49.2851 82.6192 49.3783 83.9205V96.2497C49.3783 97.4652 48.913 98.631 48.0847 99.4906C47.2564 100.35 46.133 100.833 44.9617 100.833C43.7903 100.833 42.6669 100.35 41.8386 99.4906C41.0103 98.631 40.545 97.4652 40.545 96.2497V93.6372C36.205 94.1551 31.8089 93.5516 27.7481 91.8803C23.6872 90.2091 20.0874 87.5219 17.2691 84.058C15.8205 82.3917 14.0824 81.0234 12.1458 80.0247C11.5832 79.8742 11.0547 79.6102 10.5904 79.2478C10.1261 78.8853 9.73514 78.4315 9.43985 77.9123C9.14456 77.3931 8.95071 76.8186 8.86937 76.2216C8.78804 75.6246 8.82081 75.0168 8.96581 74.433C9.11081 73.8492 9.3652 73.3007 9.71447 72.8189C10.0637 72.3371 10.501 71.9314 11.0014 71.6249C11.5017 71.3185 12.0553 71.1173 12.6306 71.0329C13.2059 70.9485 13.7915 70.9825 14.3541 71.133C17.7517 72.4174 20.7875 74.5597 23.1875 77.3663C27.6041 81.9497 32.0208 85.983 40.4125 84.333C40.2649 81.8722 40.6108 79.4064 41.4283 77.0913C32.33 74.708 19.345 67.9247 19.345 45.008C19.3333 39.5796 20.8701 34.2691 23.7616 29.7455C24.2987 28.9104 24.5044 27.8925 24.3358 26.9038C23.4433 21.9565 23.9495 16.8468 25.7933 12.1913C26.0438 11.5706 26.423 11.0147 26.9039 10.5632C27.3848 10.1117 27.9556 9.77561 28.5758 9.57884C30.0775 9.12051 35.4658 8.20384 45.6683 15.0788C53.9274 13.0164 62.5401 13.0164 70.7992 15.0788C81.0017 8.20384 86.39 9.07468 87.8475 9.57884C88.4677 9.77561 89.0385 10.1117 89.5194 10.5632C90.0003 11.0147 90.3795 11.5706 90.63 12.1913C92.4774 16.8619 92.9836 21.9873 92.0875 26.9497C91.9971 27.3968 91.9935 27.8581 92.077 28.3067C92.1604 28.7553 92.3291 29.1821 92.5733 29.5622C95.4732 34.0988 97.0104 39.4265 96.99 44.8705C96.99 68.108 84.0933 74.8455 74.9067 76.9538C75.7159 79.4132 76.0462 82.015 75.8783 84.608V96.2497C75.8804 97.4191 75.4516 98.545 74.6798 99.3971C73.908 100.249 72.8515 100.763 71.7267 100.833Z" fill="white"/>
</svg>
