<svg width="33" height="46" viewBox="0 0 33 46" fill="none" xmlns="http://www.w3.org/2000/svg">
<g clip-path="url(#clip0)">
<path d="M14.7207 -0.000246291C13.3107 0.0591704 12.0063 0.70892 10.7396 1.31267C9.66238 1.8579 8.54548 2.30853 7.39996 2.66009C6.26225 2.99742 5.07079 3.33859 4.14987 4.17042C3.75212 4.51542 3.51204 5.01184 3.20208 5.43925C2.64846 6.37075 2.39941 7.48434 2.38329 8.57875C2.44779 9.74792 2.77029 10.8788 3.05696 12.0019C3.71629 14.4208 4.50283 16.7993 5.20158 19.2067C5.85733 21.4319 6.46112 23.6993 7.52 25.754C7.87296 26.5092 8.14708 27.3027 8.47854 28.0655C8.52691 28.1939 8.57171 28.3683 8.73296 28.3511C8.97662 28.3281 9.16833 28.1307 9.39229 28.0368C10.8758 27.2433 12.5098 26.8063 14.1492 26.6012C15.4177 26.4593 16.7112 26.4517 17.9672 26.7047C19.2572 27.0171 20.506 27.5212 21.7154 28.0923C22.3604 28.422 23.0036 28.7593 23.6647 29.0468C23.7507 29.1235 23.9066 29.158 23.9514 29.0162C24.3437 28.3894 24.7917 27.7991 25.1464 27.1455C26.0333 25.1119 26.0817 22.7774 27.0062 20.7611C27.6476 19.3792 28.6043 18.1985 29.2744 16.8358C29.5879 16.3259 30.0466 15.9407 30.3279 15.404C31.1109 14.1218 31.7254 12.7245 32.2092 11.2832C32.3919 10.7216 32.5173 10.1102 32.3704 9.52175C32.2629 8.94867 32.0085 8.42925 31.8007 7.89642C31.6927 7.4512 31.5249 7.0251 31.3026 6.63142C30.5734 5.33575 29.3855 4.42917 28.1797 3.68742C26.3074 2.55659 24.2452 1.83017 22.1758 1.23409C19.9805 0.610604 17.7362 0.203844 15.4714 0.0189204C15.2209 0.00126741 14.9699 -0.00512711 14.7189 -0.000246291H14.7207ZM13.1279 1.16125C12.6603 1.58867 12.4775 2.25184 12.2894 2.85367C11.9884 3.94234 11.8182 5.08275 11.9185 6.21934C12.0332 8.25484 12.2715 10.2827 12.5098 12.3048C12.8323 14.8961 13.2032 17.4798 13.7227 20.0366C13.7693 20.3528 13.8374 20.7017 13.8123 21.0141C13.6063 20.6787 13.4862 20.28 13.3501 19.9024C12.9022 18.4362 12.5761 16.9335 12.2679 15.4289C11.7167 12.7058 11.3799 9.93801 11.261 7.15467C11.2162 5.53892 11.2538 3.8465 11.9239 2.36109C12.1353 1.92792 12.388 1.47942 12.7839 1.21684C12.9035 1.14755 13.0387 1.11504 13.1745 1.12292L13.1279 1.16125ZM6.67433 3.39225C6.90366 3.39225 6.92337 3.697 6.97533 3.87525C7.45191 5.40475 7.73141 6.99559 8.19187 8.52892C8.50362 9.77284 8.61829 11.0647 8.74371 12.345C8.9175 14.3364 8.93721 16.3413 9.18445 18.325C9.23104 18.7064 9.33137 19.0783 9.39766 19.4558C9.41558 19.5843 9.29196 19.5498 9.24896 19.4827C8.98379 19.1741 8.92108 18.7333 8.80821 18.348C8.52154 17.1118 8.37462 15.8468 8.20979 14.5875C7.89804 12.0652 7.69558 9.5275 7.262 7.02625C6.97891 5.85325 6.62416 4.6975 6.43783 3.50342C6.44858 3.40567 6.60445 3.41142 6.67433 3.39225ZM3.22179 6.91317C3.63208 7.0205 3.87575 7.42684 4.13912 7.745C4.85579 8.77042 5.10662 10.0527 5.38433 11.2774C5.89137 13.702 6.18341 16.1707 6.68329 18.5991C6.918 19.8756 7.20825 21.1406 7.59166 22.3768C7.61675 22.4746 7.65437 22.6318 7.65975 22.7027C7.24229 21.8785 6.95562 20.9853 6.64746 20.1094C5.57604 16.8549 5.17291 13.4088 4.31829 10.0891C4.08 9.17292 3.76646 8.26825 3.25046 7.48625C3.16625 7.31759 3.10712 7.09525 3.18416 6.917C3.19491 6.90934 3.20925 6.91125 3.22 6.91317H3.22179ZM25.8792 32.2055C25.6355 32.2189 25.3238 32.4163 25.3847 32.7173C25.5531 33.1351 25.9831 33.3076 26.3271 33.5146C27.1172 33.9286 28.0077 34.0704 28.7602 34.5611C28.925 34.6761 29.0272 34.9387 28.8749 35.1112C28.5524 35.621 28.0328 35.9545 27.5795 36.3263C26.913 36.8362 26.1874 37.3038 25.6857 38.0111C25.5675 38.2162 25.6122 38.5228 25.8326 38.6244C26.0279 38.7758 26.268 38.6589 26.4382 38.5267C27.3663 37.9632 28.2209 37.2732 29.0863 36.6062C29.6596 36.1481 30.2401 35.6919 30.7454 35.1495C30.8977 34.8908 30.6916 34.6243 30.534 34.4384C30.0448 33.8922 29.4231 33.505 28.805 33.1543C27.9857 32.6944 27.1044 32.3743 26.1927 32.2055C26.0884 32.1977 25.9836 32.1977 25.8792 32.2055ZM5.67816 32.2573C4.73396 32.5141 3.89187 33.0623 3.03725 33.5472C2.27579 34.0129 1.50716 34.4978 0.878289 35.1591C0.667509 35.4172 0.557223 35.7519 0.570123 36.0944C0.686581 36.3014 0.928456 36.3628 1.10941 36.4893C2.63591 37.3364 4.21796 38.0648 5.8215 38.7279C6.058 38.8084 6.29629 38.9445 6.54891 38.933C6.832 38.8947 7.10254 38.542 6.93054 38.2507C6.66896 37.7849 6.17804 37.5588 5.76596 37.2808C4.78591 36.7001 3.69837 36.2995 2.83479 35.5213C2.75237 35.3469 3.00321 35.276 3.08921 35.1763C4.07283 34.4193 5.29116 34.0397 6.15833 33.1121C6.31779 32.9396 6.45216 32.6157 6.24433 32.4259C6.09025 32.286 5.87525 32.2592 5.67816 32.2573ZM20.2175 33.7772C19.4471 33.8289 18.7215 34.6033 18.8308 35.4562C18.8881 35.9526 18.9902 36.4624 19.2393 36.8918C19.4543 37.2367 19.8305 37.4399 20.2175 37.4418C20.7067 37.5013 21.2746 37.3288 21.5183 36.8323C21.7637 36.3781 21.8981 35.8472 21.8856 35.3239C21.8175 34.4423 21.0507 33.7043 20.2193 33.7772H20.2175ZM12.173 33.7963C11.3416 33.85 10.7271 34.7643 10.7934 35.6229C10.8131 36.4739 11.3577 37.3517 12.164 37.5281C12.7947 37.6431 13.4361 37.1639 13.6027 36.5122C13.8267 35.8414 13.8392 35.0537 13.5239 34.4135C13.2426 33.9343 12.6675 33.7868 12.173 33.7963ZM12.3736 35.0479C12.8054 35.1706 12.9004 35.9487 12.4542 36.1174C12.2016 36.1826 12.026 35.8874 12.035 35.6498C12.0207 35.4063 12.1246 35.0997 12.3736 35.0479ZM20.3232 35.322C20.497 35.322 20.7282 35.4581 20.6637 35.6804C20.6404 36.0082 20.2785 36.3187 19.9882 36.1136C19.7517 35.9794 19.68 35.5463 19.9524 35.4083C20.067 35.3459 20.1947 35.3162 20.3232 35.322ZM14.0202 41.0279C13.0294 41.1257 12.1497 41.67 11.2574 42.0993C10.7127 42.3983 10.0713 42.6973 9.45679 42.4578C8.78133 42.2278 8.19008 41.7869 7.55941 41.4611C7.42504 41.4362 7.45012 41.6087 7.4752 41.6949C7.62033 42.7108 7.70633 43.8071 8.28862 44.6658C8.89421 45.5033 9.90471 45.8503 10.8561 45.9442C12.284 46.0822 13.798 45.718 14.925 44.7386C15.4786 44.2364 15.948 43.5292 15.9731 42.728C15.9623 42.107 15.5359 41.5857 15.0342 41.3212C14.7278 41.1257 14.3769 41.0243 14.0202 41.0279ZM18.6427 41.0433C17.9332 41.1429 17.1825 41.5454 16.9012 42.2891C16.67 42.9753 16.9621 43.7228 17.3885 44.2441C18.1517 45.2197 19.3056 45.764 20.4666 45.9384C21.5004 46.0879 22.5915 45.9653 23.5375 45.4784C24.3222 45.0472 24.9117 44.223 25.0604 43.2896C25.1751 42.7318 25.2055 42.1587 25.2826 41.5952C25.1643 41.4458 25.0174 41.6681 24.892 41.6949C24.2882 41.9671 23.7328 42.3983 23.0824 42.5287C22.432 42.5747 21.8515 42.199 21.2639 41.9671C20.4935 41.6259 19.7392 41.1947 18.9078 41.0509C18.8203 41.0427 18.7323 41.0401 18.6445 41.0433H18.6427ZM13.4809 31.2855C13.3555 31.2855 13.2247 31.3123 13.0939 31.343C12.8158 31.4162 12.5437 31.5136 12.2805 31.6343C12.0117 31.7512 11.7573 31.8778 11.5512 31.9793C11.4227 32.0421 11.2924 32.101 11.1607 32.1557C11.0482 32.1746 10.9331 32.1516 10.8346 32.0905C10.7235 32.0196 10.6196 31.8969 10.582 31.6018L10.0982 31.6746C10.1537 32.0924 10.349 32.3838 10.582 32.5371C10.8149 32.6885 11.0621 32.7096 11.2592 32.6655C11.4115 32.631 11.5459 32.5543 11.7537 32.4528C11.9615 32.3512 12.2106 32.2266 12.465 32.1154C12.7212 32.0043 12.981 31.9046 13.1996 31.8509C13.3465 31.8056 13.5015 31.7997 13.6511 31.8337C13.9019 31.9487 13.9915 32.0828 14.0363 32.1768C14.0811 32.2726 14.09 32.3052 14.09 32.3052L14.5612 32.1902C14.5612 32.1902 14.5648 32.1442 14.4717 31.9448C14.3341 31.6757 14.112 31.4672 13.8446 31.3564C13.729 31.3047 13.6043 31.2805 13.4791 31.2855H13.4809ZM18.3972 38.8314C18.3621 38.8324 18.3276 38.8414 18.296 38.8579C18.2645 38.8745 18.2367 38.8981 18.2145 38.9272C18.2145 38.9272 17.9959 39.2109 17.702 39.4927C17.4064 39.7763 17.0212 40.0293 16.8187 40.0351C16.6181 40.0408 16.2562 39.8089 15.9767 39.5368C15.699 39.2684 15.4983 38.9924 15.4983 38.9924C15.4795 38.963 15.4553 38.938 15.4271 38.919C15.399 38.9 15.3675 38.8873 15.3346 38.8818C15.3017 38.8764 15.268 38.8781 15.2358 38.8871C15.2036 38.896 15.1734 38.912 15.1471 38.9339C15.1209 38.9558 15.0991 38.9833 15.0832 39.0145C15.0672 39.0458 15.0574 39.0802 15.0544 39.1157C15.0514 39.1512 15.0552 39.187 15.0656 39.2208C15.076 39.2547 15.0928 39.2859 15.1149 39.3125C15.1149 39.3125 15.337 39.6192 15.6506 39.9239C15.9641 40.2306 16.3619 40.5698 16.8331 40.5564C17.2971 40.5411 17.7002 40.1923 18.0263 39.8818C18.3524 39.5693 18.5907 39.2588 18.5907 39.2588C18.6207 39.2203 18.6397 39.1734 18.6453 39.1237C18.651 39.0739 18.6432 39.0235 18.6228 38.9784C18.6024 38.9333 18.5702 38.8954 18.5302 38.8694C18.4902 38.8433 18.444 38.8301 18.3972 38.8314ZM14.7207 0.00167038C13.3107 0.0591704 12.0063 0.707004 10.7396 1.31267C9.66238 1.8579 8.54548 2.30853 7.39996 2.66009C6.26225 2.99742 5.07079 3.33859 4.14987 4.17042C3.75212 4.51542 3.51204 5.01375 3.20208 5.44117C2.64846 6.37075 2.39941 7.48434 2.38329 8.57875C2.44779 9.74792 2.77029 10.8788 3.05696 12.0019C3.71629 14.4227 4.50283 16.7993 5.20158 19.2067C5.85733 21.4319 6.46112 23.6993 7.52 25.7559C7.87296 26.5092 8.14708 27.3027 8.47854 28.0655C8.52691 28.1939 8.57171 28.3683 8.73296 28.353C8.97662 28.3281 9.16833 28.1307 9.39229 28.0368C10.8758 27.2433 12.5098 26.8082 14.1492 26.6012C15.4177 26.4593 16.7112 26.4517 17.9672 26.7066C19.2572 27.019 20.506 27.5212 21.7154 28.0923C22.3604 28.422 23.0036 28.7593 23.6647 29.0468C23.7507 29.1235 23.9066 29.158 23.9514 29.0162C24.3437 28.3894 24.7917 27.7991 25.1464 27.1474C26.0333 25.1119 26.0817 22.7774 27.0062 20.7611C27.6476 19.3792 28.6043 18.2004 29.2744 16.8377C29.5879 16.3278 30.0466 15.9407 30.3279 15.4059C31.1109 14.1218 31.7254 12.7226 32.2092 11.2832C32.3919 10.7216 32.5173 10.1102 32.3704 9.52175C32.2629 8.95059 32.0085 8.42925 31.8007 7.89642C31.6925 7.45187 31.5248 7.02642 31.3026 6.63334C30.5734 5.33767 29.3855 4.42917 28.1797 3.68934C26.3074 2.55659 24.2452 1.83017 22.1758 1.23409C19.9805 0.610604 17.7362 0.203844 15.4714 0.0189204C15.2209 0.00126741 14.9699 -0.00512711 14.7189 -0.000246291L14.7207 0.00167038ZM13.1279 1.16317C12.6603 1.58867 12.4775 2.25184 12.2894 2.85559C11.9884 3.94234 11.8182 5.08467 11.9185 6.21934C12.0332 8.25484 12.2715 10.2827 12.5098 12.3048C12.8323 14.8961 13.2032 17.4817 13.7227 20.0366C13.7693 20.3528 13.8374 20.7017 13.8123 21.0141C13.6063 20.6787 13.4862 20.28 13.3501 19.9024C12.9022 18.4362 12.5761 16.9335 12.2679 15.4289C11.7168 12.7064 11.38 9.93928 11.261 7.15659C11.2162 5.53892 11.2538 3.8465 11.9239 2.36109C12.1353 1.92984 12.388 1.47942 12.7839 1.21684C12.9035 1.14755 13.0387 1.11504 13.1745 1.12292L13.1279 1.16125V1.16317ZM6.67433 3.39225C6.90366 3.39225 6.92337 3.69892 6.97533 3.87525C7.45191 5.40475 7.73141 6.99559 8.19187 8.53084C8.50362 9.77284 8.61829 11.0647 8.74371 12.345C8.9175 14.3383 8.93721 16.3432 9.18445 18.325C9.23104 18.7064 9.33137 19.0802 9.39766 19.4558C9.41558 19.5862 9.29196 19.5517 9.24896 19.4827C8.98379 19.176 8.92108 18.7352 8.80821 18.348C8.52154 17.1118 8.37462 15.8487 8.20979 14.5875C7.89804 12.0671 7.69558 9.5275 7.262 7.02625C6.97891 5.85325 6.62416 4.6975 6.43783 3.50342C6.44858 3.40567 6.60445 3.41142 6.67433 3.39225ZM3.22179 6.91509C3.63208 7.0205 3.87575 7.42684 4.13912 7.745C4.85579 8.77042 5.10662 10.0527 5.38433 11.2774C5.89137 13.702 6.18341 16.1726 6.68329 18.5991C6.918 19.8756 7.20825 21.1425 7.59166 22.3768C7.61675 22.4746 7.65437 22.6318 7.65975 22.7027C7.24229 21.8785 6.95562 20.9853 6.64746 20.1113C5.57604 16.853 5.17291 13.4088 4.31829 10.0872C4.08 9.17292 3.76646 8.26634 3.25046 7.48625C3.16625 7.3195 3.10712 7.09525 3.18416 6.91892C3.19491 6.91125 3.20925 6.91317 3.22 6.91509H3.22179ZM25.8792 32.2055C25.6355 32.2189 25.3238 32.4163 25.3847 32.7192C25.5531 33.1351 25.9831 33.3076 26.3271 33.5165C27.1172 33.9286 28.0077 34.0704 28.7602 34.5611C28.925 34.6761 29.0272 34.9387 28.8749 35.1112C28.5524 35.6229 28.0328 35.9545 27.5795 36.3263C26.913 36.8362 26.1874 37.3038 25.6857 38.0111C25.5675 38.2162 25.6122 38.5228 25.8326 38.6244C26.0279 38.7758 26.268 38.6608 26.4382 38.5286C27.3663 37.9632 28.2209 37.2732 29.0863 36.6081C29.6596 36.1481 30.2401 35.6919 30.7454 35.1495C30.8977 34.8908 30.6916 34.6243 30.534 34.4403C30.0448 33.8922 29.4231 33.505 28.805 33.1523C27.9855 32.6939 27.1042 32.375 26.1927 32.2074C26.0884 32.199 25.9836 32.1983 25.8792 32.2055ZM5.67637 32.2611C4.73216 32.516 3.89008 33.0661 3.03546 33.5491C2.274 34.0148 1.50537 34.5017 0.876498 35.1629C0.666151 35.4206 0.555895 35.7545 0.568331 36.0963C0.68479 36.3053 0.926664 36.3647 1.10762 36.4912C2.63412 37.3383 4.21616 38.0686 5.81971 38.7298C6.05621 38.8103 6.2945 38.9464 6.54712 38.9368C6.83021 38.8985 7.10075 38.5439 6.92875 38.2526C6.66716 37.7868 6.17625 37.5607 5.76416 37.2827C4.78412 36.702 3.69658 36.3014 2.833 35.5233C2.75058 35.3508 3.00141 35.2779 3.08741 35.1783C4.07104 34.4231 5.28937 34.0436 6.15654 33.114C6.316 32.9415 6.45037 32.6195 6.24254 32.4298C6.08846 32.2879 5.87346 32.2611 5.67637 32.2611ZM20.2157 33.7791C19.4453 33.8328 18.7197 34.6071 18.829 35.4581C18.8863 35.9564 18.9885 36.4663 19.2375 36.8956C19.4525 37.2387 19.8287 37.4418 20.2157 37.4457C20.7049 37.5032 21.2728 37.3307 21.5165 36.8343C21.762 36.3819 21.8963 35.8491 21.8838 35.3258C21.8157 34.4442 21.0489 33.7082 20.2175 33.7791H20.2157ZM12.1712 33.7983C11.3398 33.8519 10.7253 34.7662 10.7916 35.6248C10.8113 36.4758 11.356 37.3537 12.1622 37.5319C12.7929 37.645 13.4343 37.1678 13.6009 36.5161C13.8249 35.8453 13.8374 35.0556 13.5221 34.4154C13.2408 33.9382 12.6657 33.7887 12.1712 33.7983ZM12.3718 35.0518C12.8036 35.1725 12.8986 35.9526 12.4525 36.1193C12.1998 36.1845 12.0242 35.8893 12.0332 35.6517C12.0189 35.4083 12.1228 35.1016 12.3718 35.0518ZM20.3215 35.3239C20.4952 35.3239 20.7264 35.4619 20.6619 35.6823C20.6386 36.012 20.2767 36.3206 19.9864 36.1174C19.7499 35.9813 19.6782 35.5482 19.9506 35.4102C20.0652 35.3478 20.193 35.3181 20.3215 35.3239ZM14.0184 41.0298C13.0276 41.1295 12.1479 41.6738 11.2556 42.1032C10.711 42.4002 10.0695 42.6992 9.455 42.4597C8.77954 42.2316 8.18829 41.7888 7.55762 41.463C7.42325 41.44 7.44833 41.6125 7.47341 41.6968C7.61854 42.7127 7.70454 43.809 8.28683 44.6677C8.89241 45.5072 9.90291 45.8541 10.8543 45.9461C12.2822 46.0841 13.7962 45.7199 14.9232 44.7405C15.4768 44.2383 15.9462 43.533 15.9713 42.7299C15.9605 42.1089 15.5341 41.5876 15.0325 41.3231C14.726 41.1276 14.3752 41.0262 14.0184 41.0298ZM18.6409 41.0452C17.9314 41.1448 17.1807 41.5473 16.8994 42.291C16.6682 42.9791 16.9603 43.7247 17.3867 44.2479C18.15 45.2216 19.3038 45.7659 20.4648 45.9403C21.4986 46.0898 22.5897 45.9691 23.5357 45.4803C24.3205 45.0491 24.9099 44.2249 25.0586 43.2915C25.1733 42.7357 25.2037 42.1607 25.2808 41.5972C25.1625 41.4496 25.0156 41.6719 24.8902 41.6968C24.2864 41.9709 23.731 42.4002 23.0806 42.5325C22.4302 42.5785 21.8497 42.2028 21.2621 41.969C20.4917 41.6278 19.7374 41.1985 18.906 41.0548C18.8185 41.0465 18.7305 41.0439 18.6427 41.0471L18.6409 41.0452Z" fill="black"/>
</g>
<defs>
<clipPath id="clip0">
<rect width="33" height="46" fill="white"/>
</clipPath>
</defs>
</svg>
