<svg width="38" height="37" viewBox="0 0 38 37" fill="none" xmlns="http://www.w3.org/2000/svg">
<path d="M7.125 9.3125C8.436 9.3125 9.5 10.6845 9.5 12.375V33.8125C9.5 35.503 8.436 36.875 7.125 36.875H2.375C1.06558 36.875 0 35.503 0 33.8125V12.375C0 10.6845 1.06558 9.3125 2.375 9.3125H7.125ZM21.375 0.125C22.686 0.125 23.75 1.497 23.75 3.1875V33.8125C23.75 35.503 22.686 36.875 21.375 36.875H16.625C15.3156 36.875 14.25 35.503 14.25 33.8125V3.1875C14.25 1.497 15.3156 0.125 16.625 0.125H21.375ZM35.625 15.4375C36.936 15.4375 38 16.8095 38 18.5V33.8125C38 35.503 36.936 36.875 35.625 36.875H30.875C29.564 36.875 28.5 35.503 28.5 33.8125V18.5C28.5 16.8095 29.564 15.4375 30.875 15.4375H35.625Z" fill="black"/>
</svg>
