<svg width="144" height="118" viewBox="0 0 144 118" fill="none" xmlns="http://www.w3.org/2000/svg">
<path d="M138.286 40.7225H117.715V25.5123L84.5049 0H5.71411V118H117.714V100.617H138.286V40.7225H138.286ZM126.286 90.7833H42.2861V50.5558H126.286V90.7833Z" fill="white"/>
<path d="M53.8344 76.8062C54.9504 77.842 56.2816 78.6811 57.8272 79.3242C59.3728 79.9679 61.0776 80.2891 62.9424 80.2891C63.9968 80.2891 65.0768 80.1787 66.1808 79.9574C67.2848 79.7365 68.3208 79.4146 69.2904 78.9925C70.2592 78.5703 71.1304 78.0527 71.9032 77.4394C72.676 76.8265 73.2708 76.1178 73.688 75.3135L69.5296 73.3534C69.2352 73.9365 68.8424 74.434 68.352 74.8461C67.8608 75.2584 67.3276 75.5954 66.7512 75.8563C66.1744 76.1178 65.5672 76.3086 64.9296 76.4292C64.2916 76.5499 63.6784 76.6102 63.0896 76.6102C61.9608 76.6102 60.924 76.4096 59.98 76.0071C59.0352 75.6052 58.2256 75.0722 57.5512 74.4088C56.876 73.7454 56.3552 72.9764 55.9872 72.1019C55.6192 71.2271 55.4352 70.3181 55.4352 69.3728C55.4352 68.5285 55.5944 67.6795 55.9136 66.8247C56.232 65.9702 56.7044 65.2065 57.3304 64.5329C57.956 63.8596 58.7408 63.3116 59.6856 62.8894C60.6296 62.4672 61.74 62.2561 63.016 62.2561C63.6048 62.2561 64.2056 62.3115 64.8192 62.422C65.4324 62.5328 66.0208 62.7085 66.5856 62.9497C67.1496 63.1909 67.6772 63.5181 68.168 63.9298C68.6584 64.3421 69.0756 64.8495 69.4192 65.4526L73.32 63.2513C72.4608 61.8641 71.1544 60.7385 69.4008 59.8738C67.6464 59.0098 65.5672 58.5771 63.1632 58.5771C61.1268 58.5771 59.3116 58.8892 57.7168 59.512C56.1216 60.1354 54.7728 60.9496 53.6688 61.9546C52.5648 62.9599 51.7244 64.1005 51.148 65.3772C50.5712 66.6539 50.2832 67.9457 50.2832 69.2522C50.2832 70.6197 50.596 71.9616 51.2216 73.278C51.8472 74.595 52.718 75.7707 53.8344 76.8062Z" fill="white"/>
<path d="M82.1885 72.9312H88.3709C89.5725 72.9312 90.6769 72.7306 91.6829 72.3281C92.6885 71.9259 93.5469 71.3932 94.2589 70.7298C94.9701 70.0664 95.5221 69.3079 95.9149 68.4531C96.3069 67.5989 96.5037 66.7191 96.5037 65.8145C96.5037 64.9504 96.2949 64.091 95.8781 63.2362C95.4609 62.382 94.8845 61.6183 94.1485 60.9443C93.4125 60.2711 92.5353 59.7283 91.5173 59.3159C90.4989 58.9043 89.3885 58.6978 88.1869 58.6978H77.1101V80.1082H82.1885V72.9312ZM82.1885 62.3466H87.8557C88.2973 62.3466 88.7325 62.422 89.1621 62.5727C89.5909 62.7235 89.9653 62.9497 90.2845 63.2512C90.6029 63.5528 90.8605 63.9199 91.0573 64.3519C91.2533 64.7843 91.3517 65.2717 91.3517 65.8145C91.3517 66.8804 91.0389 67.7248 90.4133 68.3475C89.7877 68.971 89.0085 69.2824 88.0765 69.2824H82.1885V62.3466Z" fill="white"/>
<path d="M105.115 72.9312H111.297C112.499 72.9312 113.603 72.7306 114.609 72.3281C115.615 71.9259 116.473 71.3932 117.185 70.7298C117.896 70.0664 118.448 69.3079 118.841 68.4531C119.233 67.5989 119.43 66.7191 119.43 65.8145C119.43 64.9504 119.221 64.091 118.804 63.2362C118.387 62.382 117.811 61.6183 117.075 60.9443C116.339 60.2711 115.461 59.7283 114.443 59.3159C113.425 58.9043 112.315 58.6978 111.113 58.6978H100.036V80.1082H105.115V72.9312ZM105.115 62.3466H110.782C111.223 62.3466 111.659 62.422 112.088 62.5727C112.517 62.7235 112.891 62.9497 113.211 63.2512C113.529 63.5528 113.787 63.9199 113.983 64.3519C114.179 64.7843 114.278 65.2717 114.278 65.8145C114.278 66.8804 113.965 67.7248 113.339 68.3475C112.714 68.971 111.935 69.2824 111.003 69.2824H105.115V62.3466Z" fill="white"/>
</svg>
