<svg width="131" height="124" viewBox="0 0 131 124" fill="none" xmlns="http://www.w3.org/2000/svg">
<ellipse cx="65.5" cy="62.5" rx="65.5" ry="61.5" fill="white"/>
<path d="M102.035 27H27.9615C26.1872 27 24.856 28.3039 25.0125 29.8446L31.7782 95.6873C31.935 97.2269 33.4683 98.8382 35.1881 99.2543L61.8595 105.688C63.577 106.102 66.3843 106.104 68.1043 105.694L94.8087 99.2687C96.5289 98.8539 98.0623 97.2571 98.2188 95.7148L104.987 29.8446C105.144 28.3039 103.818 27 102.035 27ZM89.1887 50.7673C89.1875 50.7774 89.1784 50.7853 89.167 50.787C89.1554 50.7887 89.1442 50.7834 89.1392 50.774L68.2429 58.2107C67.9453 58.3166 67.7756 58.5906 67.8374 58.8647C67.8997 59.1388 68.1764 59.3365 68.4982 59.3365H84.7521C85.6168 59.3365 86.4405 59.6554 87.0187 60.2138C87.5968 60.7722 87.8747 61.5175 87.7829 62.2641L85.2432 82.9536C85.1186 83.9687 84.3331 84.831 83.2242 85.1699L65.9719 90.4416C65.3221 90.6403 64.6138 90.6418 63.9625 90.4458L46.7908 85.2802C45.6751 84.9445 44.8831 84.0796 44.7577 83.06L43.6064 73.6901C43.546 73.1982 43.729 72.7071 44.1097 72.3394C44.4906 71.9715 45.0333 71.7614 45.603 71.7614H50.3814C51.4082 71.7614 52.2694 72.4339 52.378 73.3204L53.0844 79.0798L64.9741 82.669L76.9183 79.0471L78.3791 67.1023H44.6079C43.5842 67.1023 42.7244 66.4334 42.6121 65.5498L41.9691 60.4872C41.871 59.715 42.3727 58.9797 43.1994 58.6838L64.8133 50.9451C65.0585 50.8573 65.1979 50.6316 65.1465 50.4057C65.0949 50.1799 64.867 50.0173 64.602 50.0173H41.8456C41.1605 50.0173 40.586 49.568 40.5144 48.9765L39.8562 43.5351C39.8166 43.2077 39.9389 42.8809 40.1927 42.636C40.4464 42.3913 40.808 42.2515 41.1872 42.2515H88.8029C89.1842 42.2515 89.5473 42.3929 89.8013 42.6397C90.0552 42.8868 90.1758 43.2161 90.1327 43.545L89.1887 50.7673Z" fill="#5C69E5"/>
</svg>
