<svg width="50" height="43" viewBox="0 0 50 43" fill="none" xmlns="http://www.w3.org/2000/svg">
<path d="M5.66406 0.53125C5.66406 0.53125 4.375 2.83215 4.375 6.72656C4.375 9.31042 4.95361 10.6731 5.37109 11.373C2.44141 14.4707 0.625 18.6704 0.625 24.0615C0.625 37.8669 9.23096 42.4688 25 42.4688C40.769 42.4688 49.375 37.8669 49.375 24.0615C49.375 18.4843 47.6611 14.292 44.8633 11.2539C45.5591 9.13916 46.3428 5.14795 44.3945 0.53125C38.5791 0.53125 33.7305 5.07349 33.5547 5.2373C30.8374 4.63416 27.9517 4.34375 25 4.34375C21.9897 4.34375 19.0381 4.71607 16.2695 5.41602C12.373 1.49182 7.6709 0.53125 5.66406 0.53125ZM33.7891 20.4277C35.3711 20.4128 36.8359 20.5469 38.125 20.9639C41.5601 22.0734 43.75 25.2827 43.75 28.8867C43.75 38.8647 38.4839 40.5625 25 40.5625C14.9805 40.5625 6.83594 38.7679 6.83594 29.2441C6.83594 25.6104 8.77686 23.5552 10.1758 22.2744C13.252 19.4597 18.1079 20.8447 25 20.8447C28.1348 20.8447 31.145 20.4575 33.7891 20.4277ZM14.6875 25.3125C13.1348 25.3125 11.875 27.0177 11.875 29.125C11.875 31.2323 13.1348 32.9375 14.6875 32.9375C16.2402 32.9375 17.5 31.2323 17.5 29.125C17.5 27.0177 16.2402 25.3125 14.6875 25.3125ZM35.3125 25.3125C33.7598 25.3125 32.5 27.0177 32.5 29.125C32.5 31.2323 33.7598 32.9375 35.3125 32.9375C36.8652 32.9375 38.125 31.2323 38.125 29.125C38.125 27.0177 36.8652 25.3125 35.3125 25.3125ZM14.3945 26.9209C14.834 26.9209 15.1562 27.3007 15.1562 27.7549C15.1562 28.2091 14.834 28.5889 14.3945 28.5889C13.9551 28.5889 13.5742 28.2091 13.5742 27.7549C13.5742 27.3007 13.9551 26.9209 14.3945 26.9209ZM35.0195 26.9209C35.459 26.9209 35.7812 27.3007 35.7812 27.7549C35.7812 28.2091 35.459 28.5889 35.0195 28.5889C34.5801 28.5889 34.1992 28.2091 34.1992 27.7549C34.1992 27.3007 34.5801 26.9209 35.0195 26.9209Z" fill="black"/>
</svg>
