<svg width="45" height="43" viewBox="0 0 45 43" fill="none" xmlns="http://www.w3.org/2000/svg">
<path d="M22.5001 0C25.1236 0 42.4063 8.75408 43.7171 10.75C45.0339 12.7477 45.0339 30.2523 43.7171 32.25C42.4002 34.2477 25.1277 43 22.5001 43C19.8724 43 2.59382 34.2477 1.27694 32.25C-0.0317669 30.2523 -0.0317669 12.7477 1.27694 10.75C2.59382 8.75408 19.8765 0 22.5001 0ZM27.1857 12.1815C26.8978 12.1815 26.6589 12.3876 26.6589 12.6438V19.5865H18.3412V12.3768H19.7724C20.0603 12.3768 20.291 12.1708 20.291 11.9146C20.291 11.7462 20.1909 11.5992 20.0399 11.5186L16.8304 8.815C16.7303 8.70212 16.5425 8.61971 16.3689 8.61971C16.1974 8.61971 16.0423 8.70033 15.9463 8.81142L12.5163 11.5204C12.3693 11.601 12.2713 11.7462 12.2713 11.911C12.2713 12.1672 12.502 12.3733 12.7919 12.3733H14.2293L14.2456 30.3526C14.2456 30.6124 14.4722 30.8149 14.7642 30.8149H17.8104C18.1003 30.8149 18.3391 30.6088 18.3391 30.3562V23.1824H26.6549V30.6214H25.2277C24.9358 30.6214 24.7051 30.8274 24.7051 31.0836C24.7051 31.2485 24.8031 31.3954 24.948 31.476L28.1718 34.1814C28.2616 34.2907 28.4597 34.3767 28.6312 34.3767C28.8047 34.3767 28.9558 34.2961 29.0559 34.1814L32.4838 31.476C32.6308 31.3954 32.7288 31.2485 32.7288 31.0836C32.7288 30.8274 32.494 30.6214 32.2082 30.6214H30.7709L30.7566 12.6438C30.7566 12.384 30.5238 12.178 30.2359 12.178H27.1857V12.1815Z" fill="black"/>
</svg>
