<svg width="106" height="108" viewBox="0 0 106 108" fill="none" xmlns="http://www.w3.org/2000/svg">
<path d="M74.3889 0H31.6115C14.254 0 0.132568 14.3876 0.132568 32.0728V75.9274C0.132568 93.6124 14.254 108 31.6115 108H74.3889C91.7462 108 105.868 93.6124 105.868 75.9274V32.0728C105.867 14.3876 91.7462 0 74.3889 0ZM101.644 75.9272C101.644 91.2397 89.4177 103.697 74.3889 103.697H31.6115C16.5824 103.697 4.3558 91.2397 4.3558 75.9274V32.0728C4.3558 16.7602 16.5824 4.30291 31.6115 4.30291H74.3889C89.4177 4.30291 101.644 16.7602 101.644 32.0728V75.9272Z" fill="white"/>
<path d="M74.389 12.2964H31.6116C20.9085 12.2964 12.2012 21.1678 12.2012 32.0728V75.9276C12.2012 86.8324 20.9085 95.704 31.6116 95.704H74.389C85.0919 95.704 93.7992 86.8324 93.7992 75.9276V32.0728C93.7992 21.168 85.0919 12.2964 74.389 12.2964ZM89.5762 75.9272C89.5762 84.4594 82.7632 91.4009 74.389 91.4009H31.6116C23.2372 91.4009 16.4242 84.4594 16.4242 75.9272V32.0726C16.4242 23.5404 23.2372 16.5989 31.6116 16.5989V16.5991H74.389C82.7632 16.5991 89.5762 23.5406 89.5762 32.0728V75.9272Z" fill="white"/>
<path d="M53.0001 26.1938C37.9518 26.1938 25.709 38.6676 25.709 54C25.709 69.3325 37.9516 81.806 53.0001 81.806C68.0485 81.806 80.2911 69.3325 80.2911 54C80.2911 38.6676 68.0483 26.1938 53.0001 26.1938ZM53.0001 77.5031C40.2805 77.5031 29.9322 66.9596 29.9322 54C29.9322 41.0403 40.2805 30.4968 53.0001 30.4968C65.7198 30.4968 76.0679 41.0403 76.0679 54C76.0679 66.9596 65.7196 77.5031 53.0001 77.5031Z" fill="white"/>
<path d="M53.0001 38.1885C44.443 38.1885 37.4812 45.2817 37.4812 54.0001C37.4812 62.7186 44.443 69.8118 53.0001 69.8118C61.5573 69.8118 68.5189 62.7186 68.5189 54.0001C68.5189 45.2817 61.5571 38.1885 53.0001 38.1885ZM53.0001 65.5091C46.7715 65.5091 41.7042 60.3462 41.7042 54.0001C41.7042 47.6541 46.7715 42.4912 53.0001 42.4912C59.2286 42.4912 64.2959 47.6539 64.2959 54.0001C64.2959 60.3462 59.2286 65.5091 53.0001 65.5091Z" fill="white"/>
<path d="M78.7724 21.0605C75.1568 21.0605 72.2151 24.0575 72.2151 27.7416C72.2151 31.4256 75.1566 34.4224 78.7724 34.4224C82.3878 34.4224 85.3295 31.4256 85.3295 27.7416C85.3295 24.0575 82.3878 21.0605 78.7724 21.0605ZM78.7724 30.1195C77.4855 30.1195 76.4383 29.0528 76.4383 27.7416C76.4383 26.4302 77.4855 25.3635 78.7724 25.3635C80.0593 25.3635 81.1063 26.4304 81.1063 27.7416C81.1065 29.0528 80.0595 30.1195 78.7724 30.1195Z" fill="white"/>
<path d="M49.6214 97.6733H29.7729C28.6067 97.6733 27.6614 98.6365 27.6614 99.8247C27.6614 101.013 28.6067 101.976 29.7729 101.976H49.6214C50.7876 101.976 51.7329 101.013 51.7329 99.8247C51.7329 98.6365 50.7876 97.6733 49.6214 97.6733Z" fill="white"/>
<path d="M57.6454 97.6733H56.3784C55.2124 97.6733 54.2668 98.6365 54.2668 99.8247C54.2668 101.013 55.2124 101.976 56.3784 101.976H57.6454C58.8116 101.976 59.7569 101.013 59.7569 99.8247C59.7569 98.6365 58.8114 97.6733 57.6454 97.6733Z" fill="white"/>
</svg>
