<svg width="108" height="108" viewBox="0 0 108 108" fill="none" xmlns="http://www.w3.org/2000/svg">
<g clip-path="url(#clip0)">
<path d="M26.2894 33.3604H5.47195C3.36363 33.3604 1.64807 35.0757 1.64807 37.1842V104.062C1.64807 106.17 3.36341 107.885 5.47195 107.885H26.2894C28.3979 107.885 30.1132 106.17 30.1132 104.061V37.1842C30.1132 35.0759 28.3979 33.3604 26.2894 33.3604ZM25.8107 103.583H5.95098V37.6631H25.8107V103.583Z" fill="white"/>
<path d="M27.1105 4.76751C24.1087 1.76692 20.1232 0.114014 15.8882 0.114014C7.12737 0.114014 0 7.23484 0 15.9873C0 24.7431 7.12737 31.8664 15.8882 31.8664C24.643 31.8664 31.7655 24.7431 31.7655 15.9875C31.7657 11.7533 30.1126 7.76872 27.1105 4.76751ZM15.8882 27.5635C9.5002 27.5635 4.3027 22.3702 4.3027 15.9873C4.3027 9.60726 9.49999 4.41693 15.8882 4.41693C18.9742 4.41693 21.8795 5.62222 24.0684 7.8107C26.2573 9.99897 27.4626 12.9029 27.4626 15.9873C27.4628 22.3705 22.2706 27.5635 15.8882 27.5635Z" fill="white"/>
<path d="M103.19 43.3038C98.6488 35.6029 90.5907 31.6982 79.2402 31.6982C71.9276 31.6982 66.6141 34.1936 63.0786 36.7681C62.8706 34.8547 61.2449 33.3602 59.2771 33.3602H39.3407C37.2324 33.3602 35.5168 35.0756 35.5168 37.1841V104.061C35.5168 106.17 37.2322 107.885 39.3407 107.885H60.1126C62.2211 107.885 63.9365 106.17 63.9365 104.061V70.9731C63.9365 59.7565 66.9763 57.6305 72.5864 57.6305C78.0712 57.6305 79.5728 60.6218 79.5728 71.5469V104.062C79.5728 106.171 81.2882 107.886 83.3967 107.886H104.176C106.284 107.886 108 106.171 108 104.062V67.3787C108 59.9668 107.453 50.5324 103.19 43.3038ZM103.697 103.583H83.8757V71.5467C83.8757 67.1885 83.7547 62.6493 82.3091 59.2558C80.6336 55.3222 77.3624 53.3276 72.5866 53.3276C61.1728 53.3276 59.634 62.2475 59.634 70.9731V103.583H39.8198V37.6631H58.7982V41.5279C58.7982 42.4147 59.3424 43.2108 60.1691 43.5327C60.9958 43.8548 61.9349 43.6363 62.5346 42.9828C64.9281 40.3756 70.281 36.0012 79.2402 36.0012C100.735 36.0012 103.698 51.0819 103.698 67.3787V103.583H103.697Z" fill="white"/>
<path d="M10.3266 76.8049C9.13843 76.8049 8.17529 77.7681 8.17529 78.9563V98.9643C8.17529 100.153 9.13843 101.116 10.3266 101.116C11.5149 101.116 12.478 100.153 12.478 98.9643V78.9563C12.478 77.7681 11.5149 76.8049 10.3266 76.8049Z" fill="white"/>
<path d="M10.3266 67.769C9.13843 67.769 8.17529 68.7322 8.17529 69.9204V71.8566C8.17529 73.0448 9.13843 74.0079 10.3266 74.0079C11.5149 74.0079 12.478 73.0448 12.478 71.8566V69.9204C12.478 68.7322 11.5149 67.769 10.3266 67.769Z" fill="white"/>
</g>
<defs>
<clipPath id="clip0">
<rect width="108" height="108" fill="white"/>
</clipPath>
</defs>
</svg>
