<svg width="131" height="124" viewBox="0 0 131 124" fill="none" xmlns="http://www.w3.org/2000/svg">
<ellipse cx="65.5" cy="62.5" rx="65.5" ry="61.5" fill="white"/>
<path d="M85.0377 28.7956C84.5538 28.7956 84.2255 28.8618 83.8846 28.9515V29.013H83.9435C84.1708 29.5043 84.558 29.8634 84.8441 30.3028C85.0714 30.8084 85.265 31.314 85.4922 31.8148L85.5511 31.7439C85.9467 31.4321 86.1403 30.9312 86.1403 30.1705C85.972 29.9485 85.9467 29.7264 85.8036 29.5091C85.6353 29.1925 85.2734 29.0366 85.0461 28.7862L85.0377 28.7956ZM40.2821 91.1348H36.381C36.2547 83.7547 35.8633 76.8186 35.2447 70.2984H35.211L29.2773 91.1348H26.3104L20.4187 70.2984H20.3767C19.9432 76.5493 19.6697 83.4948 19.556 91.1348H16C16.2315 81.8459 16.808 73.1333 17.7254 65.0066H22.565L28.1831 84.2083H28.2168L33.8854 65.0066H38.4935C39.512 74.5271 40.1095 83.2444 40.2947 91.1348H40.2821ZM57.187 71.8576C55.5962 81.5198 53.5005 88.5504 50.9081 92.9303C48.8797 96.3132 46.6577 98 44.2463 98C43.6025 98 42.8155 97.7827 41.8644 97.348V95.0139C42.3273 95.0942 42.8744 95.1368 43.4888 95.1368C44.6167 95.1368 45.5215 94.7824 46.2116 94.0879C47.0407 93.2374 47.4531 92.283 47.4531 91.2293C47.4531 90.497 47.129 89.0087 46.4852 86.7691L42.2179 71.8576H46.0475L49.107 83.0082C49.7971 85.5407 50.0875 87.3077 49.9697 88.3141C51.653 83.2869 52.8229 77.792 53.4836 71.8576H57.187ZM109.055 91.1348H97.9868V65.0066H101.711V87.922H109.055V91.1348ZM95.083 91.7727L90.8073 89.4103C91.1861 89.0512 91.5522 88.6638 91.8805 88.2291C93.7027 85.8383 94.6075 82.2853 94.6075 77.5841C94.6075 68.9377 91.5859 64.6097 85.5385 64.6097C82.5758 64.6097 80.2613 65.7059 78.5947 67.9029C76.7852 70.3031 75.8762 73.8373 75.8762 78.5101C75.8762 83.1027 76.6758 86.4762 78.2918 88.6212C79.7647 90.5584 81.9825 91.527 84.9535 91.527C86.0645 91.527 87.083 91.3711 88.0046 91.064L93.5806 94.7115L95.0956 91.7727H95.083ZM81.2292 85.9045C80.2823 84.2035 79.811 81.4631 79.811 77.7022C79.811 71.1205 81.5953 67.8273 85.1555 67.8273C87.0198 67.8273 88.396 68.6164 89.2671 70.1897C90.2098 71.9001 90.6811 74.6122 90.6811 78.3306C90.6811 84.9642 88.8968 88.2905 85.3365 88.2905C83.4638 88.2905 82.0961 87.5015 81.2208 85.9281L81.2292 85.9045ZM74.2518 83.8964C74.2518 86.1171 73.5279 87.9409 72.0803 89.3583C70.6326 90.7758 68.701 91.4845 66.2559 91.4845C63.9708 91.4845 61.7783 90.6718 59.6362 89.0512L60.6336 86.8022C62.4768 87.8416 64.1391 88.3519 65.6415 88.3519C67.0387 88.3519 68.137 88.007 68.9366 87.3125C69.7278 86.6179 70.1991 85.6399 70.1991 84.4067C70.1991 82.8475 69.2312 81.5246 67.4721 80.4142C65.8393 79.4078 62.5778 77.31 62.5778 77.31C60.8019 75.8595 59.9182 74.305 59.9182 71.7489C59.9182 69.6228 60.5789 67.9218 61.8961 66.6225C63.2217 65.309 64.9261 64.6617 67.0303 64.6617C69.1849 64.6617 71.1544 65.3043 72.9219 66.5989L72.0255 68.8479C70.5105 68.1297 69.0166 67.7612 67.5479 67.7612C66.3569 67.7612 65.4353 68.0825 64.7956 68.7345C64.1518 69.3771 63.752 70.1992 63.752 71.2103C63.752 72.76 64.7367 74.0924 66.5547 75.2264C68.2086 76.2422 71.55 78.392 71.55 78.392C73.3722 79.8331 74.277 81.3686 74.277 83.9106L74.2518 83.8964ZM113.734 56.2468C111.483 56.1807 109.736 56.4358 108.276 57.1351C107.855 57.3241 107.182 57.3241 107.123 57.9241C107.354 58.1745 107.388 58.5856 107.586 58.9352C107.923 59.5683 108.503 60.4141 109.042 60.8582C109.631 61.378 110.22 61.8788 110.839 62.3229C111.933 63.0789 113.175 63.5277 114.248 64.2884C114.858 64.7326 115.481 65.2948 116.099 65.7673C116.407 66.0035 116.604 66.4288 117 66.58V66.4855C116.806 66.202 116.748 65.7909 116.558 65.4744C116.276 65.1578 115.994 64.8743 115.716 64.5625C114.9 63.334 113.886 62.2615 112.792 61.3732C111.891 60.6834 109.922 59.7195 109.551 58.562L109.497 58.4958C110.111 58.4344 110.843 58.184 111.432 57.995C112.388 57.7115 113.263 57.7729 114.252 57.4942C114.698 57.3666 115.148 57.2107 115.599 57.05V56.7665C115.094 56.1996 114.715 55.4294 114.193 54.9002C112.762 53.5064 111.176 52.1504 109.547 51.0117C108.663 50.3786 107.544 49.9722 106.614 49.4336C106.277 49.2446 105.713 49.1501 105.52 48.8336C105.015 48.1437 104.72 47.2271 104.362 46.405C103.554 44.6663 102.763 42.7433 102.06 40.9101C101.555 39.6721 101.248 38.439 100.63 37.305C97.7258 31.9329 94.5822 28.6775 89.7468 25.493C88.7074 24.8315 87.4617 24.548 86.1445 24.1984C85.4417 24.1606 84.7389 24.1039 84.0403 24.0708C83.5774 23.8487 83.1313 23.2487 82.7357 22.9605C81.1366 21.8265 76.9956 19.3696 75.8172 22.6203C75.0597 24.6709 76.9409 26.6931 77.5932 27.7325C78.0771 28.4554 78.6873 29.2823 79.024 30.0949C79.2218 30.643 79.2765 31.2053 79.4743 31.777C79.9204 33.1661 80.3454 34.7158 80.9346 36.0151C81.2418 36.6766 81.5785 37.3712 81.974 37.9665C82.2013 38.3114 82.5885 38.472 82.6768 39.039C82.2812 39.6816 82.256 40.6171 82.0287 41.4014C81.0188 44.9781 81.4143 49.4005 82.8452 52.0323C83.2955 52.8166 84.3686 54.5553 85.8036 53.8891C87.0661 53.3221 86.7884 51.5267 87.1503 49.9439C87.2345 49.5659 87.1798 49.3155 87.3523 49.0604V49.1312C87.7479 50.0195 88.1435 50.8652 88.5054 51.7535C89.3723 53.3032 90.8873 54.9097 92.154 55.9822C92.8273 56.5492 93.3618 57.532 94.2035 57.8816V57.7871H94.1403C93.9594 57.5131 93.7195 57.3808 93.4922 57.1587C92.9873 56.5917 92.4191 55.8972 92.0193 55.2688C90.841 53.4875 89.8015 51.5362 88.8757 49.5139C88.4128 48.5217 88.0256 47.4539 87.6553 46.4759C87.487 46.0979 87.487 45.5309 87.205 45.3419C86.7842 46.0318 86.1655 46.6318 85.8583 47.4823C85.3239 48.843 85.2692 50.5156 85.0672 52.2543C84.9535 52.2874 85.0083 52.2543 84.9535 52.3205C84.053 52.0748 83.7458 51.0259 83.4091 50.1471C82.5674 47.9028 82.4285 44.2977 83.1566 41.7133C83.3544 41.0518 84.196 38.9634 83.8594 38.3303C83.6826 37.7302 83.1271 37.3853 82.8199 36.8987C82.4538 36.3128 82.0624 35.5521 81.8099 34.8812C81.1366 33.1141 80.7999 31.158 80.0677 29.391C79.731 28.5736 79.1418 27.7184 78.6621 26.9671C78.1276 26.1167 77.5385 25.5166 77.1134 24.5102C76.9745 24.1653 76.7768 23.5936 76.9998 23.2156C77.0587 22.9605 77.1765 22.8613 77.3954 22.7904C77.7657 22.4502 78.8052 22.8943 79.1713 23.0833C80.2108 23.5558 81.0861 23.9999 81.9572 24.6614C82.3528 24.9732 82.7778 25.5733 83.2828 25.7292H83.872C84.7726 25.9513 85.7868 25.7954 86.6285 26.0741C88.1224 26.6128 89.4691 27.3971 90.6769 28.2475C94.3634 30.8745 97.3934 34.6024 99.4513 39.0485C99.7879 39.7761 99.9352 40.4423 100.242 41.1983C100.832 42.7575 101.56 44.3308 102.157 45.838C102.746 47.3264 103.314 48.843 104.16 50.0762C104.581 50.7377 106.273 51.0826 107.03 51.4275C107.59 51.711 108.461 51.9708 108.966 52.3158C109.934 52.9772 110.877 53.7332 111.786 54.4608C112.249 54.8199 113.65 55.609 113.734 56.2468Z" fill="#5C69E5"/>
</svg>
