<svg width="131" height="124" viewBox="0 0 131 124" fill="none" xmlns="http://www.w3.org/2000/svg">
<ellipse cx="65.5" cy="62.5" rx="65.5" ry="61.5" fill="white"/>
<path d="M68.6358 15C68.0159 15 67.439 15.1563 66.9051 15.3676C68.0374 16.2548 68.6609 17.4378 68.9691 18.7728C68.9942 18.9545 69.0372 19.0855 69.0587 19.2671C69.0853 19.4231 69.1009 19.5813 69.1053 19.7403C69.1913 22.0429 68.5928 22.3344 68.1736 23.6948C67.5286 25.4481 67.7078 27.3324 68.4818 28.8492C68.5526 29.0526 68.6415 29.2466 68.7469 29.428C67.9049 22.8034 72.5918 21.8105 73.4554 19.7403C73.5235 17.9321 72.2586 16.728 71.2588 15.8914C70.4732 15.3094 69.5637 15.0018 68.6358 15.0042V15ZM75.6985 16.4914C75.6125 17.0955 75.677 16.9392 75.6555 17.2519C75.634 17.4631 75.634 17.725 75.6125 17.9321C75.566 18.1433 75.523 18.3546 75.4549 18.5616C75.4119 18.7728 75.3474 18.9841 75.2757 19.1911L75.0356 19.791C74.964 19.8966 74.9245 20.0023 74.8565 20.1079L74.7239 20.3402C74.6182 20.5195 74.507 20.6943 74.3906 20.8641C74.2581 21.0247 74.147 21.2064 73.9893 21.3373V21.3627C73.8567 21.4936 73.7241 21.65 73.5665 21.7852C73.1006 22.2034 72.5703 22.5161 72.0794 22.909C71.9253 23.0357 71.7677 23.1456 71.6351 23.3019C71.4843 23.4269 71.3429 23.5668 71.2122 23.7202C71.0582 23.8765 70.9471 24.0328 70.8145 24.2187C70.7034 24.375 70.5708 24.5567 70.4812 24.7426C70.3697 24.9195 70.2657 25.1028 70.1695 25.2918C70.0799 25.5031 70.0154 25.6847 69.9258 25.8917C69.8578 26.103 69.7933 26.2847 69.7467 26.4959C69.6879 26.7117 69.6365 26.9301 69.5926 27.1508C69.5711 27.2564 69.5711 27.3874 69.5496 27.4887C69.5245 27.5944 69.5245 27.7 69.503 27.8056C69.503 28.0169 69.4815 28.2492 69.4815 28.4605C69.4815 28.6168 69.4815 28.7731 69.503 28.9294C69.503 29.1407 69.5245 29.3519 69.5711 29.5843C69.5926 29.7955 69.6356 30.0068 69.6786 30.218C69.7503 30.425 69.7933 30.6321 69.8578 30.8433C69.9043 30.9701 69.9688 31.1052 70.0154 31.2109L64.9056 28.8787C64.042 28.5914 63.1964 28.3295 62.3292 28.0929L60.9317 27.7C59.5987 27.3874 58.2443 27.1508 56.8898 26.9944C56.8432 26.9944 56.8217 26.9691 56.7787 26.9691C54.4899 26.6988 52.1855 26.6634 49.8916 26.8635C48.5371 26.9691 47.1826 27.1761 45.8281 27.4381C44.8215 27.6425 43.8212 27.8877 42.8289 28.1732L41.8291 28.4858C41.4995 28.6421 41.1841 28.8238 40.876 28.9844L40.1414 29.3773C40.0984 29.4026 40.0554 29.4026 40.0339 29.428C39.8081 29.5589 39.6111 29.6646 39.4104 29.7955C39.1219 29.9456 38.8397 30.112 38.5647 30.2941C38.4107 30.3701 38.2566 30.4757 38.1204 30.556C38.0568 30.6026 37.991 30.6449 37.9233 30.6828C37.7227 30.818 37.522 30.9489 37.3428 31.0799C37.16 31.1991 36.9829 31.3303 36.8125 31.4728C36.6548 31.5996 36.5007 31.7052 36.3682 31.8362C36.3467 31.8657 36.3216 31.8657 36.3001 31.8911C36.1675 31.9967 36.0134 32.1277 35.8773 32.2586L35.8343 32.3093L35.501 32.622C35.458 32.6516 35.4114 32.7023 35.3684 32.7276C35.2573 32.8332 35.1463 32.9642 35.0352 33.0656C35.0137 33.1205 34.9671 33.1501 34.9456 33.1712C34.813 33.3318 34.6804 33.4627 34.5478 33.6191C34.5228 33.6191 34.5228 33.6444 34.5013 33.6698C34.3632 33.8121 34.2305 33.9615 34.1035 34.1176C34.0784 34.1429 34.0784 34.1683 34.0569 34.1683C33.9403 34.3029 33.8291 34.4439 33.7237 34.5908C33.6807 34.6415 33.6162 34.6922 33.5696 34.7429C33.4506 34.9089 33.3238 35.0668 33.1898 35.2161C33.1683 35.2668 33.1253 35.2963 33.1038 35.3428C32.9246 35.554 32.7705 35.7653 32.5914 35.9765L32.5269 36.0526C32.1685 36.5004 31.7923 36.944 31.391 37.3369C30.9932 37.7594 30.5704 38.1481 30.1475 38.4903C29.2986 39.2053 28.3823 39.8022 27.4171 40.269C26.9512 40.5056 26.4603 40.7169 25.973 40.8985C25.0413 41.1351 24.0846 41.5787 23.264 41.659C23.0848 41.659 22.8878 41.7097 22.7086 41.735L22.1532 41.8914L21.6193 42.128C21.4401 42.2082 21.2645 42.3139 21.0889 42.4153C20.9313 42.5462 20.7557 42.6518 20.598 42.7828C20.4399 42.9177 20.2913 43.0675 20.1537 43.2307C19.9996 43.3574 19.842 43.5433 19.7094 43.6996C19.5768 43.8813 19.4442 44.0376 19.3331 44.2235C19.222 44.4347 19.0895 44.6164 18.9999 44.8277C18.8832 45.018 18.7789 45.2186 18.6881 45.4276C18.5985 45.6642 18.509 45.8754 18.4445 46.1078C18.3764 46.319 18.3119 46.5556 18.2438 46.788C18.2008 46.9993 18.1542 47.2105 18.1363 47.4217C18.1363 47.4429 18.1112 47.4724 18.1112 47.4978C18.0682 47.7344 18.0682 48.047 18.0431 48.2033C18.0216 48.3892 18.0001 48.5413 18.0001 48.7272C17.996 49.1828 18.0871 49.6326 18.2653 50.0369V50.0623C18.3334 50.2186 18.423 50.3792 18.5125 50.5355C18.5985 50.6918 18.6917 50.8481 18.7992 51.0044C18.9103 51.1354 19.0429 51.296 19.179 51.4269C19.3085 51.5801 19.4488 51.72 19.5983 51.8452C20.1322 52.3944 20.2648 52.5761 20.9528 52.9944C21.0639 53.0746 21.1749 53.1253 21.3111 53.2056C21.3326 53.2056 21.3541 53.2309 21.3756 53.2309C21.3756 53.2859 21.3756 53.3112 21.3971 53.3619C21.449 53.7938 21.5452 54.2165 21.6838 54.6209C21.7554 54.7773 21.7984 54.9336 21.8629 55.0899C21.888 55.1448 21.9095 55.1955 21.9346 55.2209C22.0206 55.4321 22.1102 55.6138 22.1962 55.7997L22.5294 56.3489C22.6405 56.5052 22.7767 56.6869 22.9093 56.8474C23.0418 57.0038 23.1744 57.1347 23.3321 57.2911C23.3321 57.2911 23.3536 57.3164 23.3751 57.3164C23.5077 57.4474 23.6403 57.5784 23.7764 57.684C23.9309 57.8118 24.0939 57.9248 24.2638 58.022C24.4178 58.1276 24.597 58.2332 24.7726 58.3135C24.9158 58.3896 25.0645 58.4504 25.2169 58.4952C25.242 58.5205 25.2635 58.5205 25.3065 58.5459C25.3961 58.5754 25.5072 58.6008 25.5932 58.6261C25.5287 60.0415 25.5072 61.3723 25.6863 61.8455C25.8834 62.3694 26.8617 60.7724 27.8363 58.9388C27.7073 60.747 27.6177 62.8679 27.8363 63.4974C28.0836 64.1523 29.413 62.1074 30.5704 59.8556C46.319 55.5631 60.6881 68.3898 62.1966 86.5146C61.91 83.6839 58.9537 82.1165 57.5993 82.5094C56.9328 84.4444 55.8004 86.9328 53.9801 88.4791C54.1342 86.7469 54.0697 84.9725 53.758 83.2403C53.2605 85.6515 52.3198 87.9043 51.0024 89.8395C48.8954 90.0212 46.7848 88.8171 45.674 87.0089C45.5844 86.9328 45.5629 86.7765 45.4948 86.6709C45.4303 86.4892 45.3623 86.3033 45.3157 86.1217C45.2512 85.9462 45.2066 85.7616 45.1831 85.5724C45.1616 85.3865 45.1616 85.2048 45.1616 84.9936V84.6007C45.1881 84.4149 45.2252 84.2314 45.2727 84.0515C45.3193 83.8698 45.3623 83.6881 45.4303 83.5022C45.5163 83.3205 45.5844 83.1347 45.6955 82.953C46.0718 81.694 46.0718 80.6716 45.3838 80.0716C45.2501 79.9688 45.1086 79.8811 44.9609 79.8097C44.8749 79.7843 44.7639 79.7336 44.6743 79.7041L44.4951 79.628C44.343 79.57 44.1872 79.5262 44.0293 79.497C43.8779 79.4448 43.7211 79.4178 43.5634 79.4168C43.4022 79.3869 43.2393 79.37 43.0761 79.3661C42.965 79.3661 42.854 79.3914 42.7429 79.3914C42.5768 79.3903 42.4115 79.4174 42.252 79.4717C42.0979 79.497 41.9438 79.5224 41.7861 79.5731C41.6276 79.6232 41.472 79.6853 41.3203 79.759C41.1662 79.835 41.0336 79.9153 40.876 79.9956C40.7434 80.0716 40.6108 80.1772 40.4531 80.2575C35.2788 84.2374 38.3677 93.5574 41.8972 96.2571C40.5642 96.5444 39.2097 96.8824 38.8335 97.2246L38.7869 97.2753C39.7436 97.9555 40.7434 98.5343 41.7861 99.0329C43.2087 99.5821 44.7173 100.076 45.3838 100.288V100.313C47.2239 100.759 49.1057 100.918 50.9809 100.786C60.8207 99.975 68.8831 91.1493 70.3487 79.5224L70.4812 80.2026C70.5493 80.6758 70.6353 81.1743 70.6819 81.6686V81.694C70.7249 81.9306 70.7464 82.1672 70.7715 82.3784V82.4798C70.793 82.7164 70.8145 82.953 70.8145 83.1642C70.836 83.4515 70.8575 83.7388 70.8575 84.0261V84.4486C70.8575 84.5753 70.8826 84.7317 70.8826 84.8626C70.8826 85.0232 70.8575 85.1795 70.8575 85.3358V85.7034C70.8575 85.885 70.836 86.0414 70.836 86.2273C70.836 86.3329 70.836 86.4385 70.8145 86.5653C70.8145 86.7512 70.793 86.9328 70.793 87.1441C70.7715 87.2201 70.7715 87.3004 70.7715 87.3764L70.6998 87.9806C70.6998 88.0609 70.6998 88.1369 70.6819 88.2172C70.6568 88.4791 70.6138 88.7157 70.5923 88.9777V89.0284L70.4598 89.7635V89.8395L70.3272 90.5451C70.3272 90.5747 70.3021 90.6296 70.3021 90.6507C70.2612 90.8903 70.2098 91.1272 70.148 91.3605V91.4365C70.0799 91.6985 70.0154 91.9351 69.9688 92.1717C69.9473 92.197 69.9473 92.2224 69.9473 92.2224L69.7467 93.0082C69.6607 93.2701 69.5926 93.5067 69.503 93.7687C69.4134 94.0306 69.3489 94.2926 69.2593 94.5292C69.1698 94.7911 69.0802 95.0235 68.9942 95.2896H68.9691C68.8831 95.522 68.7899 95.784 68.6824 96.0205C68.6638 96.0831 68.641 96.1438 68.6143 96.2022C68.5928 96.2276 68.5928 96.2571 68.5713 96.2825C67.1025 99.7496 64.9646 102.762 62.3292 105.079C62.1501 105.21 61.9745 105.37 61.7953 105.527C61.7523 105.577 61.6878 105.603 61.6412 105.653C61.4824 105.792 61.3199 105.924 61.1539 106.05L61.2184 106.207H61.2435L62.1751 106.05H62.1966C62.7736 105.945 63.3505 105.814 63.9274 105.683C64.085 105.657 64.2606 105.603 64.4183 105.552L64.73 105.472C64.8841 105.446 65.0382 105.396 65.1959 105.37C65.3284 105.315 65.461 105.286 65.5936 105.239C67.8153 104.605 69.9688 103.744 72.0364 102.725C68.4668 108.458 63.7195 113.026 58.2407 116C60.7992 115.789 63.3505 115.294 65.8158 114.454C74.739 111.36 82.2755 104.26 86.8032 94.6813C85.8887 100.745 83.849 106.496 80.8298 111.522C82.9824 109.848 84.9713 107.898 86.7602 105.708C91.7315 99.5889 94.9952 91.8221 96.1126 83.4515C96.8651 87.5919 97.0873 91.859 96.7576 96.0712C112.789 69.7038 98.087 42.3646 91.9345 35.1654C91.913 35.1104 91.8915 35.0851 91.8915 35.0344C91.87 35.0597 91.87 35.0597 91.87 35.0851C91.87 35.0597 91.87 35.0597 91.8449 35.0344C91.8449 35.347 91.8234 35.6597 91.8019 35.9765C91.7404 36.5631 91.6663 37.1477 91.5798 37.7299C91.4723 38.3044 91.3361 38.8833 91.2035 39.4621C91.0459 40.0113 90.8703 40.5859 90.666 41.1351C90.463 41.6775 90.2419 42.2103 90.0031 42.7321C89.5073 43.7586 88.9353 44.7313 88.2939 45.6388C87.9606 46.1078 87.6059 46.5261 87.2476 46.9486C87.0381 47.1743 86.823 47.3927 86.6026 47.6034L86.0937 48.1273C85.6972 48.4962 85.282 48.8363 84.8503 49.1455C84.4258 49.4678 83.9881 49.7653 83.5388 50.0369C83.073 50.2989 82.6072 50.5355 82.1413 50.7721C81.1925 51.1975 80.2109 51.5131 79.2102 51.7142C78.6978 51.8198 78.1889 51.8705 77.698 51.9255C77.3438 51.955 76.9889 51.9719 76.6338 51.9762C76.1286 51.9679 75.6241 51.9327 75.1216 51.8705C74.6143 51.8236 74.1103 51.7361 73.6131 51.6086C73.1094 51.5008 72.6125 51.3526 72.126 51.165H72.1009C72.5918 51.1101 73.0791 51.0594 73.5701 50.9537C74.5701 50.7493 75.5515 50.4339 76.5012 50.0116C76.9885 49.8003 77.4544 49.5384 77.8987 49.2765C78.3645 49.0145 78.7874 48.7272 79.2317 48.4146C79.6545 48.0766 80.0738 47.7344 80.4751 47.3668C80.8764 46.9993 81.2527 46.6063 81.6074 46.1881C81.9837 45.7952 82.3169 45.3515 82.6502 44.9037C82.9834 44.4347 83.2952 43.9616 83.5818 43.4926C83.6284 43.4123 83.675 43.3067 83.718 43.2307C83.9402 42.8082 84.1623 42.3899 84.363 41.9716C84.8526 40.9295 85.2535 39.8327 85.5598 38.6974C85.7175 38.1481 85.8286 37.5735 85.9396 36.9947C86.0292 36.3948 86.1188 35.8202 86.1618 35.2414C86.2048 34.6415 86.2514 34.0373 86.2514 33.4627C86.2514 33.0402 86.2263 32.622 86.2048 32.2037C86.1605 31.6172 86.1007 31.0325 86.0256 30.4504C85.9393 29.8601 85.8293 29.275 85.696 28.6971C85.5383 28.1478 85.3842 27.569 85.2051 27.0198C85.0259 26.4706 84.8073 25.9213 84.5852 25.3974C84.3379 24.8735 84.0942 24.3497 83.8291 23.8511C83.5454 23.3617 83.249 22.8826 82.9404 22.4147C82.6072 21.9668 82.2739 21.519 81.9192 21.0754C81.7322 20.8506 81.5399 20.6322 81.3423 20.4205C80.3389 19.5037 79.2998 18.6418 78.2534 17.856C78.1099 17.7583 77.9615 17.6708 77.8091 17.5941C77.1503 17.1185 76.4405 16.7491 75.6985 16.4956V16.4914Z" fill="#5C69E5"/>
</svg>
