<svg width="134" height="124" viewBox="0 0 134 124" fill="none" xmlns="http://www.w3.org/2000/svg">
<ellipse cx="65.5" cy="62.5" rx="65.5" ry="61.5" fill="white"/>
<path d="M62.3942 16.0028C64.8807 14.6687 68.1194 14.6627 70.6037 16.0028C83.1022 22.6229 95.6047 29.2325 108.101 35.8566C110.451 37.0976 112.024 39.5496 112 42.0882V81.9168C112.017 84.5606 110.29 87.0712 107.81 88.2841C95.3525 94.8676 82.9015 101.459 70.4462 108.043C67.9083 109.403 64.6046 109.298 62.146 107.826C58.4112 105.797 54.6701 103.778 50.935 101.75C50.1718 101.324 49.3114 100.984 48.7724 100.29C49.2489 99.6885 50.1007 99.6135 50.7928 99.3507C52.3518 98.8861 53.7836 98.1402 55.2158 97.4164C55.578 97.184 56.0201 97.2731 56.3673 97.481C59.5609 99.1974 62.7264 100.964 65.9307 102.664C66.6143 103.034 67.3065 102.543 67.8908 102.237C80.1154 95.7608 92.3549 89.3089 104.577 82.8305C105.03 82.6263 105.281 82.1756 105.244 81.7106C105.252 68.572 105.246 55.4311 105.248 42.2925C105.3 41.7648 104.974 41.2797 104.465 41.0638C92.051 34.5104 79.6432 27.9469 67.2311 21.3919C67.0161 21.2533 66.7613 21.1789 66.5004 21.1786C66.2394 21.1782 65.9844 21.2519 65.7689 21.3899C53.3568 27.9469 40.9512 34.5164 28.5391 41.0695C28.0319 41.2858 27.6915 41.7628 27.7519 42.2925C27.754 55.4311 27.7519 68.572 27.7519 81.7126C27.7304 81.9395 27.7835 82.1672 27.9042 82.3649C28.0249 82.5626 28.2073 82.7209 28.4269 82.8184C31.7391 84.5791 35.0557 86.3273 38.37 88.0819C40.2372 89.024 42.5298 89.5837 44.587 88.862C46.4024 88.2516 47.6749 86.5151 47.6403 84.7083C47.6574 71.6463 47.6317 58.5824 47.6531 45.5225C47.6078 44.9426 48.1946 44.4635 48.796 44.5181C50.3875 44.5081 51.9811 44.498 53.5726 44.5221C54.2369 44.5081 54.694 45.1324 54.6119 45.7166C54.6054 58.8613 54.629 72.0062 54.6011 85.1509C54.6054 88.6541 53.07 92.4659 49.6132 94.18C45.3545 96.248 40.0908 95.8094 35.8835 93.8265C32.2413 92.1224 28.7655 90.1114 25.1879 88.2858C22.7018 87.0796 20.9828 84.559 21.0003 81.9172V42.0882C20.9742 39.497 22.6089 37.0005 25.0326 35.7776C37.4879 29.1887 49.941 22.5948 62.3942 16.0028Z" fill="#5C69E5"/>
<path d="M73.2602 43.5925C78.6925 43.2647 84.508 43.3983 89.3963 45.9068C93.181 47.8292 95.2793 51.8637 95.3461 55.8051C95.2404 56.3367 94.6475 56.63 94.1061 56.5935C92.53 56.5915 90.9535 56.6136 89.3774 56.5834C88.7088 56.6075 88.3202 56.0297 88.2363 55.4756C87.7834 53.5898 86.6862 51.722 84.7926 50.8124C81.8858 49.4482 78.5153 49.5168 75.3456 49.5453C73.0316 49.6604 70.5433 49.8482 68.5829 51.1238C67.0779 52.09 66.6207 54.0404 67.1579 55.6112C67.6643 56.7391 69.0533 57.103 70.1897 57.4385C76.7363 59.0434 83.6737 58.8837 90.0953 60.9959C92.7539 61.857 95.3547 63.5309 96.2647 66.1402C97.4551 69.6373 96.9333 73.8175 94.2789 76.625C92.1264 78.9353 88.9913 80.1928 85.8644 80.8757C81.7047 81.7452 77.3878 81.7673 73.1634 81.3812C69.1912 80.9567 65.0575 79.9785 61.991 77.4415C59.3688 75.3073 58.088 71.9818 58.2152 68.7723C58.2455 68.2302 58.8212 67.8523 59.3752 67.8968C60.9624 67.8848 62.5496 67.8807 64.1367 67.8988C64.7707 67.8563 65.2407 68.3699 65.2732 68.9299C65.5661 70.7267 66.2864 72.6126 67.9579 73.6779C71.1837 75.6286 75.2313 75.4951 78.925 75.5496C81.985 75.4224 85.4201 75.3839 87.9173 73.488C89.2349 72.4067 89.6252 70.5975 89.2692 69.0411C88.8834 67.7271 87.417 67.1147 86.1576 66.7143C79.695 64.798 72.6802 65.4934 66.28 63.3263C63.6817 62.4656 61.1692 60.8382 60.1709 58.336C58.778 54.7947 59.4163 50.4144 62.3488 47.7016C65.2082 45.0033 69.3358 43.9641 73.2602 43.5921V43.5925Z" fill="#5C69E5"/>
</svg>
