<svg width="131" height="124" viewBox="0 0 131 124" fill="none" xmlns="http://www.w3.org/2000/svg">
<ellipse cx="65.5" cy="62.5" rx="65.5" ry="61.5" fill="white"/>
<path d="M42.4622 98.0554V74.9394C43.5092 75.0596 44.7439 75.1221 46.0914 75.1221C54.3043 75.1221 60.9449 72.5706 65.2972 67.741C68.8625 63.7521 70.8267 57.8093 70.8267 51.0079C70.8267 44.4021 68.4808 38.4291 64.3944 34.6237C60.3772 30.8397 54.474 29 46.3475 29C39.3078 29 33.3592 29.4769 28.6654 30.4179C28.2812 30.4943 28 30.8869 28 31.346V98.0554C28 98.5757 28.3579 98.9971 28.7997 98.9971H41.6626C42.1042 98.9971 42.4622 98.5757 42.4622 98.0554ZM42.4622 61.2651V42.8317C43.2476 42.6542 44.7224 42.4196 47.0283 42.4196C52.9622 42.4196 56.3652 45.6962 56.3652 51.4089C56.3652 57.7283 52.4932 61.5018 46.0062 61.5018C44.4502 61.5018 43.3419 61.4294 42.4622 61.2651Z" fill="#5C69E5"/>
<path d="M94.1358 67.1723C88.8362 64.9881 87.9422 63.948 87.9422 62.4435C87.9422 59.7715 90.536 59.3726 92.0829 59.3726C95.3673 59.3726 98.7934 60.8237 100.729 62.066C100.946 62.205 101.204 62.2185 101.431 62.103C101.656 61.9869 101.825 61.7549 101.886 61.4739L104.186 50.9417C104.28 50.5118 104.106 50.0633 103.769 49.865C101.382 48.4591 96.9461 46.9565 91.6564 46.9565C81.205 46.9565 73.9056 53.944 73.9056 63.9326C73.8349 68.806 75.9261 75.4782 86.2924 79.5877C91.3277 81.5646 91.8789 82.5919 91.8789 84.3123C91.8789 85.0965 91.8789 87.4834 87.1421 87.4834C83.5935 87.4834 78.8024 85.6274 76.3983 83.9081C76.1801 83.7525 75.9133 83.728 75.678 83.8426C75.4432 83.9567 75.2682 84.1959 75.2068 84.4867L72.9073 95.4216C72.8197 95.8385 72.9827 96.2722 73.3032 96.4763C76.8212 98.7154 81.8655 100 87.1421 100C98.7741 100 106 93.5659 106 83.1962C105.908 75.4016 102.247 70.4593 94.1358 67.1723Z" fill="#5C69E5"/>
</svg>
