<svg width="131" height="124" viewBox="0 0 131 124" fill="none" xmlns="http://www.w3.org/2000/svg">
<ellipse cx="65.5" cy="62.5" rx="65.5" ry="61.5" fill="white"/>
<path d="M83.1919 24C79.9479 24.026 76.7228 24.5346 73.6078 25.5113L73.3886 25.5863C71.4238 25.212 69.4347 25.0051 67.4398 24.9675C63.3418 24.8925 59.8212 25.965 56.9825 27.75C54.1855 26.7038 48.3828 24.9 42.267 25.26C38.009 25.5113 33.3613 26.9063 29.9172 30.8251C26.4836 34.7438 24.6677 40.8077 25.0503 49.0577C25.1547 51.334 25.7565 55.0465 26.755 59.8541C27.7534 64.6616 29.1554 70.2904 30.9052 75.4242C32.6551 80.5618 34.5719 85.1743 37.5671 88.3093C39.063 89.8806 41.1225 91.2006 43.5507 91.0919C45.2553 91.0169 46.7965 90.2106 48.1254 89.0218C48.7724 89.9406 49.4647 90.3419 50.0944 90.7131C50.8876 91.1819 51.6599 91.5006 52.46 91.7106C53.8967 92.0969 56.3563 92.6144 59.2367 92.0856C60.2178 91.9094 61.251 91.5644 62.2807 91.0731C62.319 92.3106 62.3642 93.5219 62.4094 94.7481C62.5521 98.6332 62.6425 102.222 63.7244 105.368C63.8984 105.882 64.375 108.53 66.2535 110.866C68.1321 113.206 71.8127 114.665 76.0047 113.697C78.9617 113.015 82.7223 111.785 85.2201 107.952C87.69 104.164 88.8033 98.7307 89.0224 89.9181C89.0781 89.4418 89.1442 89.0368 89.2138 88.6581L89.8017 88.7143H89.8713C93.0266 88.8681 96.4497 88.3843 99.3093 86.9518C101.842 85.6881 103.759 84.4093 105.154 82.1405C105.502 81.578 105.884 80.8993 105.989 79.7292C106.093 78.5592 105.47 76.7292 104.437 75.8855C102.367 74.1905 101.066 74.8355 99.6711 75.1467C98.2969 75.4742 96.8965 75.6576 95.4896 75.6942C99.5111 68.3929 102.395 60.6378 104.041 53.7753C105.015 49.7252 105.561 45.9902 105.606 42.7239C105.651 39.4576 105.404 36.5664 103.588 34.0651C97.9143 26.25 89.9374 24.09 83.7659 24.015C83.5746 24.0113 83.3833 24.0075 83.1919 24.0113V24ZM83.0284 26.4C88.8659 26.34 96.3245 28.1063 101.678 35.4826C102.882 37.1401 103.24 39.5626 103.199 42.5477C103.153 45.5289 102.642 49.099 101.706 53.0103C99.8903 60.5853 96.4601 69.4167 91.6281 77.3405C91.7987 77.4712 91.9832 77.5794 92.1777 77.663C93.1866 78.113 95.4861 78.4992 100.075 77.483C101.23 77.2205 102.075 77.0442 102.952 77.7642C103.165 77.9589 103.333 78.2041 103.443 78.4806C103.554 78.7571 103.603 79.0574 103.588 79.358C103.541 79.8132 103.386 80.2474 103.136 80.618C102.249 82.0543 100.499 83.4155 98.2552 84.5368C96.2688 85.5343 93.4197 86.0556 90.894 86.0856C89.6277 86.1006 88.4589 85.9956 87.4674 85.6618L87.4048 85.6356C87.0221 89.6106 86.142 97.4594 85.568 101.041C85.1088 103.928 84.3051 106.223 82.771 107.941C81.2403 109.658 79.073 110.693 76.1577 111.368C72.5467 112.205 69.9132 111.305 68.2156 109.763C66.5214 108.226 65.7456 106.186 65.2795 104.937C64.9594 104.074 64.7924 102.957 64.6324 101.464C64.4724 99.9719 64.3541 98.1457 64.2741 96.0869C64.1675 92.9345 64.1327 89.7798 64.1697 86.6256C62.6613 88.1148 60.7869 89.1043 58.7706 89.4756C56.3737 89.9143 54.2342 89.4831 52.9575 89.1381C52.3281 88.9677 51.7205 88.7145 51.1485 88.3843C50.5571 88.0431 49.9935 87.6568 49.6178 86.8956C49.397 86.4596 49.3268 85.9534 49.4195 85.4668C49.5371 84.9736 49.804 84.5368 50.1779 84.2255C50.8667 83.6218 51.7781 83.2843 53.1523 82.9768C55.6535 82.4218 56.5267 82.043 57.059 81.5893C57.5112 81.1993 58.0226 80.4118 58.9271 79.2567C58.9228 79.2056 58.9193 79.1543 58.9167 79.103C57.2979 79.0539 55.7127 78.5939 54.2899 77.7605C53.768 78.353 51.1032 81.3905 47.854 85.6055C46.4869 87.3681 44.977 88.3806 43.3837 88.4518C41.7904 88.5268 40.3502 87.6606 39.1257 86.3818C36.68 83.8205 34.7284 79.4142 33.0273 74.4342C31.3296 69.4542 29.9485 63.9079 28.9675 59.1828C27.983 54.4578 27.402 50.6477 27.3185 48.8102C26.9533 41.0027 28.6474 35.7414 31.5523 32.4226C34.4606 29.1038 38.4473 27.8475 42.3331 27.6075C49.3082 27.1763 55.9319 29.7976 57.2712 30.3601C59.8525 28.47 63.1782 27.2925 67.332 27.3675C69.3039 27.3973 71.2661 27.6717 73.1799 28.185L73.2494 28.1513C74.0918 27.8321 74.9501 27.5642 75.8203 27.3488C78.1831 26.7546 80.5988 26.439 83.0249 26.4075L83.0284 26.4ZM83.5572 28.9125H83.0493C81.0562 28.9425 79.0707 29.1837 77.1214 29.6326C81.456 31.7026 84.7296 34.8901 87.036 38.0701C88.6382 40.2719 89.9624 42.6931 90.974 45.2702C91.3567 46.2602 91.6141 47.0965 91.7603 47.7452C91.8333 48.0715 91.882 48.3452 91.8994 48.6302C91.9064 48.7727 91.9133 48.919 91.8577 49.1702C91.8577 49.1815 91.8403 49.2077 91.8368 49.219C91.9412 52.504 91.1862 54.7315 91.0958 57.8666C91.0262 60.1391 91.5654 62.8091 91.6976 65.7229C91.8229 68.4604 91.5167 71.4679 89.8678 74.4192C90.0069 74.5992 90.1322 74.7792 90.2644 74.9592C94.6268 67.5529 97.7717 59.3591 99.4485 52.3728C100.346 48.6115 100.823 45.2027 100.864 42.5027C100.899 39.8026 100.433 37.8451 99.8381 37.0276C95.1695 30.5926 88.852 28.9538 83.5572 28.9088V28.9125ZM66.8936 29.8726C62.7817 29.8838 59.8316 31.2226 57.5947 33.2288C55.2883 35.3026 53.7402 38.1414 52.7244 41.0477C51.5172 44.4977 51.1032 47.8352 50.9397 50.1002L50.985 50.0702C52.2269 49.3202 53.8585 48.5702 55.6048 48.1352C57.3512 47.704 59.2333 47.569 60.9379 48.2815C62.6425 48.994 64.0514 50.6702 64.5628 53.2128C67.0119 65.4266 63.801 69.9679 62.6182 73.3954C62.1694 74.6378 61.785 75.906 61.4667 77.1942C61.6163 77.1567 61.7658 77.1117 61.9154 77.0967C62.7504 77.0217 63.4044 77.3217 63.794 77.5017C64.9838 78.0342 65.8013 79.1517 66.2431 80.4268C66.3579 80.7605 66.4414 81.1205 66.4901 81.4918C66.5415 81.6442 66.5651 81.8059 66.5597 81.968C66.4278 86.6398 66.4428 91.315 66.6049 95.9856C66.6849 98.0032 66.8032 99.7807 66.9528 101.183C67.1024 102.582 67.3146 103.647 67.4502 104.007C67.8955 105.207 68.5461 106.778 69.7219 107.847C70.8978 108.912 72.585 109.625 75.6672 108.912C78.339 108.293 79.9879 107.435 81.0907 106.201C82.19 104.967 82.8475 103.249 83.2685 100.621C83.8981 96.6832 85.1644 85.2643 85.3175 83.1155C85.2479 81.4955 85.4705 80.2505 85.9506 79.3017C86.4446 78.3267 87.21 77.7305 87.8709 77.408C88.2014 77.2467 88.511 77.138 88.765 77.0592C88.4961 76.6427 88.2142 76.2363 87.9196 75.8405C86.9667 74.5946 86.1863 73.2064 85.6027 71.7192C85.3233 71.105 85.0251 70.5009 84.7087 69.9079C84.246 69.0079 83.6616 67.8829 83.0493 66.6191C81.8247 64.0879 80.4923 61.0203 79.8001 58.0316C79.1113 55.0465 79.0104 51.9565 80.7776 49.7777C82.3431 47.8427 85.0914 47.0402 89.2172 47.4902C89.0955 47.0965 89.0224 46.7702 88.8172 46.2452C87.8844 43.8785 86.6668 41.6544 85.1957 39.6301C81.6995 34.8113 76.0395 30.0338 67.2937 29.8801H66.8936V29.8726ZM43.7873 30.0676C43.3455 30.0676 42.9037 30.0826 42.4653 30.1088C38.9517 30.3263 35.6294 31.4251 33.2534 34.1401C30.8739 36.8551 29.3084 41.3064 29.6493 48.6752C29.7154 50.0702 30.279 53.9778 31.2461 58.6203C32.2098 63.2629 33.5769 68.7267 35.2189 73.5529C36.8644 78.3792 38.8578 82.5793 40.7503 84.5668C41.7035 85.5605 42.5314 85.9618 43.2829 85.9281C44.0378 85.8906 44.9457 85.4218 46.0555 83.9855C48.0788 81.3546 50.1787 78.7933 52.3521 76.3055C50.81 74.8621 49.6298 73.0235 48.9203 70.9591C48.2108 68.8946 47.9948 66.6709 48.2924 64.4929C48.6507 61.7216 48.6994 59.1303 48.6576 57.0828C48.6159 55.0878 48.4837 53.7603 48.4837 52.9315C48.4831 52.9078 48.4831 52.884 48.4837 52.8603V52.8415L48.4802 52.819V52.8153C48.4781 48.4982 49.1751 44.2139 50.5397 40.1551C51.5138 37.3651 52.9644 34.5301 55.1387 32.2351C53.0027 31.4776 49.2108 30.3226 45.1058 30.1051C44.6655 30.0807 44.2247 30.0682 43.7838 30.0676H43.7873ZM86.9177 49.8752C84.5556 49.909 83.2302 50.5652 82.5344 51.424C81.5499 52.6428 81.456 54.7803 82.0683 57.4128C82.6771 60.0491 83.9364 62.9966 85.1192 65.4454C85.7106 66.6716 86.2846 67.7741 86.7473 68.6704C87.2134 69.5704 87.5544 70.2079 87.7631 70.7517C87.9544 71.2542 88.1666 71.6967 88.3823 72.1092C89.2973 70.0279 89.4608 67.9841 89.3668 65.8541C89.2451 63.2179 88.678 60.5216 88.7615 57.7916C88.8554 54.6003 89.4399 52.5228 89.4921 50.0552C88.6384 49.936 87.7785 49.8759 86.9177 49.8752ZM58.2731 50.3065C57.5515 50.3137 56.8328 50.4068 56.1301 50.584C54.7297 50.9508 53.3808 51.517 52.1191 52.2678C51.6923 52.5145 51.2861 52.8006 50.905 53.1228L50.8284 53.1978C50.8493 53.7453 50.9502 55.0728 50.9919 57.0265C51.0337 59.1641 50.985 61.8903 50.6023 64.8416C49.7709 71.2542 54.0881 76.5642 59.1602 76.5717C59.4559 75.2555 59.9429 73.9204 60.43 72.5142C61.8424 68.4116 64.622 65.4191 62.2807 53.7415C61.898 51.829 61.1397 51.0565 60.096 50.6215C59.5111 50.3985 58.8934 50.2917 58.2731 50.3065ZM85.8149 51.0715H85.9889C86.2185 51.079 86.4307 51.1052 86.6151 51.154C86.8029 51.199 86.963 51.2665 87.0952 51.3602C87.163 51.4055 87.2212 51.4656 87.2662 51.5367C87.3111 51.6077 87.3418 51.6881 87.3561 51.7727L87.3526 51.8027H87.3561H87.3526C87.3594 51.9808 87.317 52.157 87.2308 52.309C87.1282 52.5148 86.9994 52.7042 86.8482 52.8715C86.4953 53.2904 86.0226 53.5702 85.5053 53.6665C85.002 53.7321 84.4939 53.5945 84.079 53.2803C83.9092 53.1571 83.7569 53.0081 83.6268 52.8378C83.5142 52.704 83.4383 52.5391 83.4076 52.3615C83.4003 52.275 83.4095 52.1878 83.4347 52.1052C83.4598 52.0227 83.5003 51.9466 83.5537 51.8815C83.6679 51.7417 83.8061 51.6271 83.9607 51.544C84.2947 51.3415 84.747 51.1915 85.2583 51.109C85.4497 51.079 85.6375 51.064 85.8149 51.0602V51.0715ZM58.6105 51.7015C58.7949 51.7015 58.9897 51.7202 59.188 51.7502C59.7203 51.829 60.1934 51.9827 60.5552 52.2078C60.7317 52.307 60.8887 52.442 61.0179 52.6053C61.0882 52.6919 61.1412 52.7932 61.1735 52.9029C61.2059 53.0126 61.2168 53.1283 61.2057 53.2428C61.1723 53.4584 61.0817 53.6589 60.9448 53.8203C60.8025 54.0086 60.6348 54.1729 60.4474 54.3078C59.9949 54.6533 59.4392 54.8044 58.8889 54.7315C58.3264 54.6319 57.8117 54.3306 57.4277 53.8765C57.2644 53.6937 57.1262 53.4866 57.0173 53.2615C56.9026 53.0635 56.8524 52.8299 56.8746 52.5978C56.9268 52.1928 57.2364 51.9828 57.5391 51.8665C57.8838 51.7478 58.2456 51.6969 58.6071 51.7165L58.6105 51.7015ZM90.1287 79.238L90.1183 79.2417C89.6069 79.4405 89.1859 79.523 88.8311 79.6917C88.4722 79.8407 88.1764 80.1262 87.9997 80.4943C87.7805 80.9255 87.5926 81.6905 87.6483 82.9918C87.8057 83.1086 87.9795 83.1972 88.1632 83.2543C88.758 83.4493 89.7565 83.5768 90.8697 83.558C93.0892 83.5318 95.82 82.973 97.2707 82.2455C98.4608 81.6496 99.5655 80.8729 100.551 79.9393H100.548C95.7018 81.0193 92.9639 80.7305 91.2837 79.9843C90.8664 79.7971 90.4772 79.5444 90.1287 79.2342V79.238ZM62.1903 79.5905H62.1172C61.9328 79.6092 61.665 79.6768 61.1466 80.2955C59.936 81.758 59.5116 82.6768 58.5131 83.5355C57.5147 84.3905 56.2171 84.848 53.6254 85.4218C52.8044 85.6018 52.3348 85.8006 52.0217 85.9618C52.1225 86.0518 52.1121 86.0743 52.2652 86.1606C52.6444 86.3856 53.1314 86.5843 53.5245 86.6931C54.6377 86.9931 56.4676 87.3418 58.3775 86.9931C60.2873 86.6406 62.2738 85.6543 63.9679 83.093C64.2602 82.6505 64.2915 81.998 64.0514 81.2968C63.8079 80.5955 63.2757 79.9918 62.8999 79.823C62.6764 79.7067 62.4366 79.6307 62.1903 79.598V79.5905Z" fill="#5C69E5"/>
</svg>
