<svg width="131" height="124" viewBox="0 0 131 124" fill="none" xmlns="http://www.w3.org/2000/svg">
<ellipse cx="65.5" cy="62.5" rx="65.5" ry="61.5" fill="white"/>
<path d="M64.5 49.9816C63.2945 49.9816 62.1008 50.2278 60.987 50.706C59.8733 51.1842 58.8613 51.8852 58.0088 52.7689C57.1564 53.6525 56.4802 54.7016 56.0189 55.8562C55.5576 57.0107 55.3201 58.2482 55.3201 59.4979C55.3201 60.7475 55.5576 61.985 56.0189 63.1396C56.4802 64.2941 57.1564 65.3432 58.0088 66.2268C58.8613 67.1105 59.8733 67.8115 60.987 68.2897C62.1008 68.7679 63.2945 69.0141 64.5 69.0141C65.7055 69.0141 66.8992 68.7679 68.013 68.2897C69.1267 67.8115 70.1387 67.1105 70.9911 66.2268C71.8436 65.3432 72.5198 64.2941 72.9811 63.1396C73.4424 61.985 73.6799 60.7475 73.6799 59.4979C73.6799 58.2482 73.4424 57.0107 72.9811 55.8562C72.5198 54.7016 71.8436 53.6525 70.9911 52.7689C70.1387 51.8852 69.1267 51.1842 68.013 50.706C66.8992 50.2278 65.7055 49.9816 64.5 49.9816ZM38.7843 78.428L36.7587 77.8941C21.6606 73.939 13 67.2256 13 59.4801C13 51.7345 21.6606 45.0211 36.7587 41.066L38.7843 40.5366L39.3551 42.6187C40.8846 48.0807 42.8409 53.4044 45.2047 58.5369L45.6381 59.4845L45.2047 60.4321C42.837 65.5629 40.8805 70.8869 39.3551 76.3503L38.7843 78.428ZM35.8188 45.9287C24.3429 49.2698 17.3002 54.3816 17.3002 59.4801C17.3002 64.5741 24.3429 69.6859 35.8188 73.0314C37.2223 68.4043 38.9168 63.8774 40.8915 59.4801C38.9146 55.0837 37.22 50.5567 35.8188 45.9287ZM90.2157 78.428L89.6449 76.3414C88.1169 70.8797 86.1591 65.5573 83.791 60.4277L83.3576 59.4801L83.791 58.5324C86.1582 53.4009 88.116 48.077 89.6449 42.6142L90.2157 40.5321L92.2456 41.0616C107.339 45.0166 116 51.7301 116 59.4801C116 67.2301 107.339 73.939 92.2456 77.8941L90.2157 78.428ZM88.1085 59.4801C90.1684 64.1025 91.8722 68.6448 93.1812 73.0314C104.661 69.6859 111.7 64.5741 111.7 59.4801C111.7 54.3816 104.657 49.2743 93.1812 45.9287C91.7796 50.5565 90.085 55.0835 88.1085 59.4801ZM35.7887 45.9064L35.218 43.8288C30.9735 28.3199 32.261 17.2065 38.75 13.327C45.1145 9.51878 55.333 14.0166 66.0407 25.4103L67.4999 26.963L66.0407 28.5156C62.236 32.6158 58.7597 37.0303 55.6463 41.7156L55.0669 42.5742L54.0584 42.6632C48.5818 43.1107 43.1493 44.0183 37.8144 45.377L35.7887 45.9064ZM43.9257 16.4101C42.7756 16.4101 41.7585 16.6682 40.9001 17.1798C36.6342 19.729 35.8789 28.5913 38.8187 40.5499C43.392 39.4952 48.0268 38.7507 52.6936 38.321C55.3863 34.3521 58.3282 30.5712 61.5001 27.003C54.8051 20.2451 48.4663 16.4101 43.9257 16.4101ZM85.0785 106.999C85.0742 106.999 85.0742 106.999 85.0785 106.999C78.9629 106.999 71.1092 102.225 62.9593 93.5498L61.5001 91.9971L62.9593 90.4445C66.7631 86.343 70.2379 81.9269 73.3494 77.2401L73.9288 76.3815L74.933 76.2925C80.4124 75.8474 85.8478 74.9413 91.1856 73.5831L93.2113 73.0537L93.7863 75.1358C98.0222 90.6358 96.739 101.754 90.25 105.629C88.6738 106.552 86.889 107.025 85.0785 106.999ZM67.4999 91.9571C74.1949 98.715 80.5337 102.55 85.0742 102.55H85.0785C86.2244 102.55 87.2458 102.292 88.0999 101.78C92.3658 99.2311 93.1254 90.3644 90.1813 78.4057C85.6068 79.4619 80.9705 80.2064 76.3021 80.6346C73.6126 84.6063 70.6721 88.3888 67.4999 91.9571ZM93.2113 45.9064L91.1856 45.377C85.8485 44.0144 80.4129 43.1067 74.933 42.6632L73.9288 42.5742L73.3494 41.7156C70.2395 37.0289 66.7645 32.6141 62.9593 28.5156L61.5001 26.963L62.9593 25.4103C73.6627 14.0211 83.8769 9.52323 90.25 13.327C96.739 17.2065 98.0265 28.3199 93.7863 43.8243L93.2113 45.9064ZM76.3021 38.321C81.2032 38.7837 85.8596 39.5356 90.1813 40.5499C93.1254 28.5913 92.3658 19.729 88.0999 17.1798C83.8597 14.6395 75.8901 18.5323 67.4999 27.003C70.6703 30.5714 73.6107 34.3522 76.3021 38.321ZM43.9257 106.999C42.1138 107.026 40.3274 106.553 38.75 105.629C32.261 101.754 30.9735 90.6402 35.218 75.1358L35.7845 73.0537L37.8101 73.5831C42.767 74.8777 48.2346 75.7898 54.0541 76.2925L55.0626 76.3815L55.6377 77.2401C58.7516 81.9263 62.2278 86.3423 66.0321 90.4445L67.4913 91.9971L66.0321 93.5498C57.8865 102.225 50.0328 106.999 43.9257 106.999ZM38.8187 78.4057C35.8746 90.3644 36.6342 99.2311 40.9001 101.78C45.136 104.285 53.1013 100.423 61.5001 91.9571C58.3294 88.3862 55.3877 84.6039 52.6936 80.6346C48.0266 80.2068 43.3917 79.4622 38.8187 78.4057ZM64.5 81.1996C60.968 81.1996 57.3372 81.0395 53.7022 80.7281L52.6936 80.6391L52.1143 79.7804C50.0582 76.7178 48.1252 73.5682 46.3205 70.3399C44.5211 67.1089 42.8516 63.802 41.3164 60.4277L40.8872 59.4801L41.3164 58.5324C42.8514 55.158 44.5209 51.8511 46.3205 48.6203C48.0972 45.4348 50.05 42.2583 52.1143 39.1797L52.6936 38.321L53.7022 38.2321C60.8893 37.6003 68.115 37.6003 75.3021 38.2321L76.3064 38.321L76.8815 39.1797C80.9979 45.3061 84.6113 51.7797 87.6836 58.5324L88.117 59.4801L87.6836 60.4277C84.6186 67.1844 81.0049 73.6586 76.8815 79.7804L76.3064 80.6391L75.3021 80.7281C71.6671 81.0395 68.032 81.1996 64.5 81.1996ZM55.0712 76.377C61.4229 76.8708 67.5771 76.8708 73.9331 76.377C77.4816 70.9994 80.6321 65.3509 83.3576 59.4801C80.6369 53.6056 77.4847 47.9567 73.9288 42.5831C67.652 42.0893 61.348 42.0893 55.0712 42.5831C51.5138 47.9557 48.3615 53.6047 45.6424 59.4801C48.3709 65.3502 51.5228 70.9986 55.0712 76.377Z" fill="#5C69E5"/>
</svg>
