<svg width="131" height="124" viewBox="0 0 131 124" fill="none" xmlns="http://www.w3.org/2000/svg">
<ellipse cx="65.5" cy="62.5" rx="65.5" ry="61.5" fill="white"/>
<path d="M66.9697 25.0513C62.7768 24.7831 58.0626 25.5619 53.4511 27.5019C46.1232 30.5831 38.1974 35.4292 32.4982 41.7425C25.728 49.2566 24.642 55.7961 25.087 58.532C26.6713 68.2356 37.9637 74.5658 42.4821 79.2469C42.2596 79.3943 42.0521 79.5211 41.8563 79.6541C39.5897 80.988 31.1812 86.228 29.0273 91.8653C26.5945 98.2577 29.4298 102.833 31.2929 103.459C37.1049 105.371 42.8563 102.029 46.0515 96.3805C49.2497 90.7287 48.8646 83.3527 47.3901 79.9912C47.3752 79.9409 47.347 79.9081 47.3321 79.8578C47.9166 79.4443 48.5118 79.0283 49.1111 78.6149C50.2651 77.8059 51.3912 77.0676 52.3792 76.424C51.8214 78.2037 51.4193 80.3505 51.2087 83.446C50.9595 87.07 52.2219 91.7588 53.8625 93.6068C54.5864 94.4157 55.4608 94.4354 56.0007 94.4354C57.9202 94.4354 58.7829 92.5569 59.7382 90.3135C60.919 87.5775 61.9633 84.401 61.9633 84.401C61.9633 84.401 60.6597 92.9959 64.2347 92.9959C65.5401 92.9959 66.8488 91.0045 67.4333 89.9835V89.9975C67.4333 89.9975 67.4548 89.9339 67.526 89.8009C67.6654 89.5528 67.7346 89.4077 67.7346 89.4076V89.3585C68.2627 88.2871 69.4206 85.8336 71.1592 81.7818C73.411 76.5435 75.563 69.9989 75.563 69.9989C75.7707 71.437 76.0585 72.8559 76.4264 74.2472C76.815 75.8111 77.6395 77.5261 78.2922 79.1907C77.7641 80.0463 77.4404 80.5389 77.4404 80.5389C77.4404 80.5533 77.4489 80.5668 77.4578 80.574C77.0395 81.2319 76.5653 81.9376 76.0787 82.6314C74.2986 85.1373 72.1826 88.0085 71.9067 88.8318C71.5714 89.8026 71.657 90.525 72.2949 91.0859C72.7666 91.5137 73.6072 91.5793 74.4794 91.5002C76.0785 91.3672 77.2046 90.9032 77.7475 90.6084C78.7473 90.1842 79.6917 89.6004 80.5521 88.867C82.2906 87.3498 83.3502 85.1738 83.2523 82.3084C83.1959 80.7265 82.7606 79.1411 82.2325 77.6599C82.3867 77.3974 82.5563 77.1187 82.7076 76.8383C85.4608 72.0782 87.5866 66.8531 87.5866 66.8531C87.7943 68.2912 88.0821 69.71 88.45 71.1014C88.7852 72.4352 89.4384 73.9011 90.0377 75.3356C87.4536 77.8235 85.8497 80.7087 85.292 82.6034C84.2625 86.1123 85.0739 87.6893 86.59 88.0524C87.2723 88.2178 88.2418 87.8432 88.9657 87.4836C90.0397 87.0594 91.0505 86.4418 91.9673 85.6509C93.7058 84.1337 95.3887 82.0109 95.2759 79.1275C95.2344 77.826 94.9319 76.5236 94.5284 75.2724C96.712 74.1867 99.5457 73.5932 103.162 74.0857C110.906 75.1571 112.423 80.8902 112.132 83.2775C111.841 85.6683 110.212 87.0039 109.669 87.3994C109.127 87.7948 108.962 87.9436 109.003 88.242C109.071 88.6698 109.32 88.6516 109.78 88.551C110.42 88.4179 113.838 86.608 113.992 82.175C114.215 76.5764 109.674 70.4183 101.627 70.4624H101.615C98.8214 70.4645 96.0672 71.2235 93.5607 72.6883C92.7389 70.7289 91.8893 69.0143 91.7529 67.7308C91.5867 66.2316 91.4094 65.3428 91.6022 63.5668C91.798 61.7871 92.6716 59.2631 92.6568 59.0798C92.642 58.9 92.4612 57.9953 90.6693 57.9773C88.8773 57.9593 87.33 58.3891 87.152 58.9463C86.8346 59.971 86.5882 61.0208 86.4161 62.0922C86.0957 64.0192 82.8292 70.9083 80.9809 74.5C80.3697 73.0979 79.8564 71.8654 79.7466 70.8767C79.5805 69.3774 79.3973 68.4887 79.5902 66.7126C79.786 64.933 80.6654 62.409 80.6506 62.2256C80.6357 62.0458 80.455 61.1411 78.6631 61.1231C76.8711 61.1052 75.321 61.5349 75.14 62.0922C74.959 62.653 74.7631 63.9689 74.4041 65.238C74.0421 66.5071 69.6909 77.9798 68.5516 80.9602C67.9672 82.4774 67.465 83.697 67.103 84.5204C67.0466 84.6534 67.008 84.7365 66.9813 84.8012C67.0229 84.7185 67.0509 84.6355 67.0509 84.6678C66.7453 85.3761 66.5641 85.7703 66.5641 85.7703V85.7843C66.3268 86.3128 66.0629 86.7955 65.9383 86.7955C65.8552 86.7955 65.6733 85.4109 65.9789 83.5162C66.6316 79.5291 68.1782 73.3324 68.1634 73.1167C68.1486 73.0016 68.449 71.9294 67.1436 71.3542C65.8768 70.8113 65.4252 71.7193 65.3125 71.7193C65.1998 71.7193 65.1155 72.0493 65.1155 72.0493C65.1155 72.0493 66.5154 65.0625 62.4152 65.0625C59.8549 65.0625 56.2937 68.3905 54.5463 71.4033C53.4486 72.1116 51.0703 73.6472 48.5664 75.2794C47.6081 75.905 46.6239 76.5467 45.6923 77.1543C45.6241 77.0716 45.5665 76.9912 45.4953 76.9085C40.517 70.6133 31.3273 66.1629 31.7159 57.7105C31.8554 54.6293 32.7633 46.544 49.3892 36.7218C63.0186 28.6828 73.914 30.8874 75.789 35.7949C78.4858 42.7984 69.9611 55.8337 55.8095 57.7105C50.4159 58.4187 47.9311 55.6571 47.222 54.7332C46.4863 53.7624 46.371 53.7108 46.0921 53.8905C45.6323 54.1853 45.926 55.0442 46.0921 55.5547C46.5104 56.8562 48.3695 58.8947 51.3303 60.0488C53.9322 61.0555 59.9066 61.9006 67.555 58.3916C76.1468 54.4692 82.7101 43.8141 80.7491 34.6714C79.5012 28.8628 73.958 25.4982 66.9697 25.0513ZM62.4095 69.1844C62.6269 69.2038 62.7883 69.3012 62.8788 69.4863C63.3654 70.4606 61.1883 77.6326 60.6305 79.2469C59.7405 81.8354 57.8615 88.4292 56.7192 88.0805C55.7461 87.7857 55.1456 82.7578 56.5222 77.8144C57.2165 75.3265 58.692 72.3608 59.5701 71.2067C60.6226 69.8099 61.7571 69.1261 62.4095 69.1844ZM91.3067 77.3158C91.4699 77.8911 91.5556 78.4954 91.5674 79.0994C91.5526 82.8097 89.316 84.1909 87.969 84.7661C87.6902 84.536 87.727 83.7587 88.6586 81.3534C89.0205 80.4151 89.8589 78.833 91.3067 77.3158ZM44.5971 81.4026C45.7512 86.4108 44.6401 90.8288 41.9432 94.309C39.3859 97.6202 35.7967 98.8734 34.2539 97.82C32.5985 96.6803 33.2528 91.8006 36.4095 88.2701C38.329 86.1273 40.8067 84.1522 42.4474 82.9334C42.8241 82.6709 43.3617 82.274 44.0293 81.7958C44.142 81.7131 44.1973 81.6835 44.1973 81.6835C44.3219 81.5864 44.4577 81.5033 44.5971 81.4026ZM79.538 81.9784C79.538 82.0611 79.5554 82.1482 79.5554 82.2452C79.5376 85.1933 77.1414 87.1842 76.0555 87.9752H76.0671V87.9822C75.6903 88.2123 75.3409 88.357 75.1748 88.242C75.0502 88.1593 75.3312 87.8488 75.3312 87.8488C75.3312 87.8488 77.2632 85.3893 78.0257 84.2676C78.4707 83.6096 78.9832 82.8341 79.538 81.9784Z" fill="#5C69E5"/>
</svg>
