<svg width="147" height="108" viewBox="0 0 147 108" fill="none" xmlns="http://www.w3.org/2000/svg">
<g clip-path="url(#clip0)">
<path d="M129.125 -0.263916H17.8749C8.01868 -0.263916 0 7.59083 0 17.2459V90.7539C0 100.409 8.01868 108.264 17.8749 108.264H129.125C138.982 108.264 147 100.409 147 90.7542V17.2459C147 7.59112 138.982 -0.263916 129.125 -0.263916ZM141 90.7542C141 97.1684 135.673 102.386 129.125 102.386H17.8749C11.327 102.386 6.00001 97.1684 6.00001 90.7542V17.2459C6.00001 10.8317 11.327 5.61365 17.8749 5.61365H129.125C135.673 5.61365 141 10.8317 141 17.2459V90.7542Z" fill="white"/>
<path d="M97.6423 48.4125L63.5185 25.2702C62.3531 24.479 60.9865 24.0608 59.567 24.0608C58.4493 24.0608 57.3356 24.3294 56.3465 24.8382C54.0551 26.0172 52.6316 28.3234 52.6316 30.8575V77.1431C52.6316 79.6757 54.0545 81.982 56.3522 83.1652C57.3413 83.6712 58.4539 83.9389 59.569 83.9389C60.9876 83.9389 62.3537 83.5207 63.5173 82.7307L97.6412 59.5886C99.5134 58.3198 100.632 56.2307 100.632 54.0001C100.631 51.7695 99.5134 49.6804 97.6423 48.4125ZM94.2266 54.7553L60.1002 77.8991C59.8194 78.0895 59.4269 78.1077 59.1372 77.9592C58.8251 77.7984 58.6313 77.4859 58.6313 77.1431V30.8575C58.6313 30.5146 58.8251 30.2019 59.1361 30.0418C59.2678 29.9743 59.4168 29.9384 59.5673 29.9384C59.7014 29.9384 59.9032 29.9665 60.1019 30.1018L94.228 53.2455C94.4807 53.4165 94.6314 53.6986 94.6314 54.0001C94.6311 54.3016 94.4804 54.5834 94.2266 54.7553Z" fill="white"/>
<path d="M129 90.147H127.657C126 90.147 124.657 91.4627 124.657 93.0858C124.657 94.7088 126 96.0245 127.657 96.0245H129C130.656 96.0245 132 94.7088 132 93.0858C132 91.4627 130.656 90.147 129 90.147Z" fill="white"/>
<path d="M117.952 90.147H88.8123C87.1556 90.147 85.8123 91.4627 85.8123 93.0858C85.8123 94.7088 87.1556 96.0245 88.8123 96.0245H117.952C119.608 96.0245 120.952 94.7088 120.952 93.0858C120.952 91.4627 119.608 90.147 117.952 90.147Z" fill="white"/>
</g>
<defs>
<clipPath id="clip0">
<rect width="147" height="108" fill="white"/>
</clipPath>
</defs>
</svg>
